<svg width="1920" height="1080" viewBox="0 0 1920 1080" fill="none" xmlns="http://www.w3.org/2000/svg">
<path d="M971.933 341.653L971.5 340.904L971.067 341.653L596.918 989.095L596.485 989.845H597.351H796.722L702.24 1155.5H308.863L965.364 11.6944L971.5 1.00445L977.636 11.6944L1634.14 1155.5H1240.76L1146.28 989.845H1345.65H1346.52L1346.08 989.095L971.933 341.653Z" stroke="#27272A"/>
<path d="M960.933 -401.156L960.5 -401.905L960.067 -401.156L-41.7043 1331.7L-42.1381 1332.45H-41.2715H493.98L240.052 1777.5H-815.136L943.345 -1285.12L960.5 -1315L977.655 -1285.12L2736.14 1777.5H1680.95L1427.02 1332.45H1962.27H1963.14L1962.7 1331.7L960.933 -401.156Z" stroke="#27272A"/>
</svg>
