<svg width="42" height="41" viewBox="0 0 42 41" fill="none" xmlns="http://www.w3.org/2000/svg">
<g clip-path="url(#clip0_4_1957)">
<path d="M32.0154 19.3746C32.0154 27.9234 25.0923 34.8411 16.537 34.8411C7.98165 34.8411 1.05859 27.9234 1.05859 19.3746C1.05859 10.8259 7.98165 3.9082 16.537 3.9082C25.036 3.9082 32.0154 10.8259 32.0154 19.3746Z" fill="#A1A1AA"/>
<path d="M33.0843 29.2734V32.0293C33.0843 33.0416 33.5346 33.4916 34.1538 33.4916C34.8292 33.4916 35.2795 33.0416 35.2795 32.0293V29.2734H35.8986V31.973C35.8986 33.3791 35.1669 33.9415 34.1538 33.9415C33.1969 33.9415 32.5215 33.4353 32.5215 31.973V29.2734H33.0843Z" fill="#A1A1AA"/>
<path d="M36.7997 33.1537C37.0811 33.3224 37.4751 33.4349 37.8691 33.4349C38.4883 33.4349 38.826 33.0975 38.826 32.6475C38.826 32.1976 38.6008 31.9726 37.9817 31.7477C37.25 31.4665 36.7434 31.0728 36.7434 30.4541C36.7434 29.723 37.3626 29.2168 38.2631 29.2168C38.7134 29.2168 39.0511 29.3293 39.2763 29.4418L39.0511 29.9479C38.8823 29.8355 38.6008 29.723 38.2068 29.723C37.5877 29.723 37.3626 30.1167 37.3626 30.3979C37.3626 30.8478 37.644 31.0165 38.2631 31.2977C39.0511 31.5789 39.4451 31.9726 39.4451 32.6475C39.4451 33.3787 38.9385 33.9973 37.8128 33.9973C37.3626 33.9973 36.856 33.8848 36.6309 33.7161L36.7997 33.1537Z" fill="#A1A1AA"/>
<path d="M22.8382 23.1432C22.3316 23.3682 21.2622 23.6494 20.0802 23.6494C18.7294 23.6494 17.6037 23.312 16.7031 22.4683C15.9151 21.7372 15.4648 20.4999 15.4648 19.0938C15.4648 16.3942 17.3223 14.4258 20.3616 14.4258C21.4311 14.4258 22.219 14.6507 22.613 14.8195L22.3316 15.7756C21.8251 15.5506 21.2622 15.3819 20.3616 15.3819C18.1665 15.3819 16.7594 16.7317 16.7594 18.9814C16.7594 21.2873 18.1102 22.6371 20.2491 22.6371C21.0371 22.6371 21.5436 22.5246 21.8251 22.4121V19.7125H20.0239V18.7564H23.007V23.1432" fill="#171717"/>
<path d="M25.0943 22.1305C25.6008 22.4679 26.3888 22.6929 27.1768 22.6929C28.3588 22.6929 29.0905 22.0742 29.0905 21.1744C29.0905 20.3308 28.584 19.8246 27.402 19.3746C25.9386 18.8122 25.038 18.0811 25.038 16.7875C25.038 15.3815 26.22 14.3691 27.9648 14.3691C28.8654 14.3691 29.5408 14.5941 29.9348 14.8191L29.5971 15.7752C29.3157 15.6065 28.6965 15.3252 27.9085 15.3252C26.6703 15.3252 26.22 16.0564 26.22 16.675C26.22 17.5187 26.7828 17.9124 28.0211 18.4185C29.5408 19.0372 30.3288 19.7683 30.3288 21.0619C30.3288 22.4679 29.3157 23.649 27.1768 23.649C26.3326 23.649 25.3757 23.3678 24.8691 23.0866L25.0943 22.1305Z" fill="#171717"/>
<path d="M34.6589 15.9436H34.6026L33.1392 16.7872L32.9141 15.8873L34.7715 14.875H35.7846V23.5362H34.6589V15.9436Z" fill="#A1A1AA"/>
<path d="M4.26437 19.3177C4.26437 12.4562 9.83659 6.88827 16.7034 6.88827C16.3657 6.83203 15.9717 6.83203 15.6339 6.83203C8.71089 6.83203 3.13867 12.3999 3.13867 19.3177C3.13867 26.2354 8.71089 31.8033 15.6339 31.8033C16.0842 31.8033 16.5345 31.8033 16.9848 31.7471C16.8722 31.7471 16.8159 31.7471 16.7034 31.7471C9.83659 31.7471 4.26437 26.1791 4.26437 19.3177Z" fill="#171717"/>
<path d="M7.31001 19.4308C7.31001 13.3004 12.2631 8.35116 18.3982 8.35116C18.0604 8.35116 17.779 8.29492 17.4413 8.29492C11.3062 8.29492 6.29688 13.3004 6.29688 19.4308C6.29688 25.5611 11.3062 30.5666 17.4413 30.5666C17.8353 30.5666 18.2856 30.5666 18.6796 30.5104C18.6233 30.5104 18.5107 30.5104 18.4544 30.5104C12.2631 30.5104 7.31001 25.5611 7.31001 19.4308Z" fill="#171717"/>
<path d="M10.2326 19.2068C10.2326 14.0326 14.3977 9.87069 19.5759 9.87069C19.2945 9.87069 19.0131 9.81445 18.7316 9.81445C13.5534 9.81445 9.33203 14.0326 9.33203 19.2068C9.33203 24.381 13.5534 28.5991 18.7316 28.5991C19.0693 28.5991 19.4071 28.5991 19.7448 28.5429C19.6885 28.5429 19.6322 28.5429 19.5196 28.5429C14.3977 28.5429 10.2326 24.381 10.2326 19.2068Z" fill="#171717"/>
<path d="M12.8294 19.2051C12.8294 14.987 16.2627 11.5562 20.4841 11.5562C20.259 11.5562 20.0338 11.5 19.8087 11.5C15.531 11.5 12.0977 14.9307 12.0977 19.2051C12.0977 23.4795 15.531 26.9102 19.8087 26.9102C20.0901 26.9102 20.3716 26.9102 20.653 26.854C20.5967 26.854 20.5404 26.854 20.4841 26.854C16.2627 26.9102 12.8294 23.4795 12.8294 19.2051Z" fill="#171717"/>
</g>
<defs>
<clipPath id="clip0_4_1957">
<rect width="40.5252" height="40.494" fill="white" transform="translate(0.650391 0.269531)"/>
</clipPath>
</defs>
</svg>
