<svg width="111" height="36" viewBox="0 0 111 36" fill="none" xmlns="http://www.w3.org/2000/svg">
<path d="M25.6172 29.8777L28.4046 32.1163L31.3611 29.6012L30.1776 28.4955V10.8223C30.1776 10.8223 29.9034 10.8721 29.8988 10.9038C29.7435 11.7739 27.7512 13.8494 26.4488 14.1983V29.207C26.4488 29.207 25.9188 29.6012 25.6172 29.8777Z" fill="#A1A1AA"/>
<path d="M32.012 20.2616H32.1582L33.8626 21.7072L33.9586 30.8384C33.9586 30.8384 34.4155 35.9409 29.2383 34.8307L29.2748 35.2839C30.0287 35.6545 30.8652 35.8292 31.7058 35.7914C34.6303 35.6147 37.1344 34.2235 37.34 31.6087C37.6919 27.0771 37.5045 20.0939 37.5045 20.0939L34.3561 17.8281L30.1613 21.1588V21.757C30.1613 21.757 32.0531 20.2208 32.012 20.2616Z" fill="#A1A1AA"/>
<path d="M22.969 22.0523C22.9536 22.0833 22.9399 22.1151 22.9279 22.1475C22.333 23.7892 21.3284 25.2547 20.008 26.4072C18.315 27.8611 16.1272 28.6211 13.8894 28.5325C9.68999 28.3286 6.91172 25.5235 6.91172 21.4088C6.96041 20.1491 7.26944 18.9126 7.81965 17.7761C8.36986 16.6396 9.14953 15.6273 10.1104 14.8018C9.80612 14.7495 9.49396 14.765 9.19647 14.8471C5.90642 16.3153 3.64453 19.3787 3.64453 22.9541C3.64453 27.9389 8.09066 31.9856 13.5741 31.9856C17.5952 31.9856 21.0635 29.8059 22.6217 26.6746C23.2569 25.0386 23.001 22.3696 22.969 22.0523Z" fill="#A1A1AA"/>
<path d="M20.176 15.3711H19.793V26.9222H20.176V15.3711Z" fill="#A1A1AA"/>
<path d="M13.3616 13.8086L13.2565 26.7101L11.0723 28.0695L11.4332 28.4638L17.2822 24.7524V17.5925C17.2822 17.5925 17.2411 15.3267 17.4878 15.2814" fill="#A1A1AA"/>
<path d="M11.8325 14.1662C13.1576 14.5377 13.5232 14.9003 14.6473 15.0725C16.442 15.308 18.252 15.411 20.0622 15.3806C24.0239 15.3806 25.6507 11.6239 25.6507 11.6239C24.3392 12.1677 19.7925 12.562 16.763 11.9185C14.6016 11.4653 13.674 11.3203 12.1934 11.0121C3.32859 9.24935 3.15039 16.2235 3.15039 16.2235C4.06429 15.8474 5.77786 12.4623 11.8325 14.1662Z" fill="#A1A1AA"/>
<path d="M19.3887 20.791L19.9553 20.166L20.5539 20.8091L20.0238 21.4885L19.3887 20.791Z" fill="#A1A1AA"/>
<path d="M51.076 27.0367L50.7744 26.7331L47.2788 29.5245L44.2766 27.372L44.2492 26.1349L50.1667 21.6033L47.7311 17.4297C46.4714 18.1748 45.1649 18.8393 43.8196 19.419C43.1479 19.6637 40.5753 20.6788 40.5753 20.6788L40.621 28.4687L38.7109 29.9686L38.9531 30.3266L40.6758 29.0125L44.8569 32.0215L51.076 27.0367ZM44.2218 19.7589L45.1859 19.3058L47.4478 23.1576L44.208 25.6727L44.2218 19.7589Z" fill="#A1A1AA"/>
<path d="M80.1781 21.4529L79.6389 22.0012L79.3145 21.7066L80.1918 20.8275L81.2428 19.7626L82.2207 18.7656C83.8428 19.9438 85.3508 20.9861 85.3508 20.9861V28.0373L87.5259 29.6233C87.5259 29.6233 89.0247 28.1324 89.0749 28.0463C89.0749 26.9542 89.0749 22.5178 89.0749 22.5178L87.5578 21.3532L86.9272 21.9015L86.6211 21.6205L89.4862 18.7656L92.4198 21.0314L93.3703 20.0934L93.649 20.4242L92.7077 21.3803V29.1521L93.4708 29.646L94.3527 28.7895L94.6451 29.0841L91.4099 32.3242L89.0886 30.6611V28.6808L85.5655 32.2607L81.8323 29.646L80.8635 30.5523L80.5528 30.2532L81.7363 29.075V22.5269L80.2055 21.4347" fill="#A1A1AA"/>
<path d="M80.1781 21.4529L79.6389 22.0012L79.3145 21.7066L80.1918 20.8275L81.2428 19.7626L82.2207 18.7656C83.8428 19.9438 85.3508 20.9861 85.3508 20.9861V28.0373L87.5259 29.6233C87.5259 29.6233 89.0247 28.1324 89.0749 28.0463C89.0749 26.9542 89.0749 22.5178 89.0749 22.5178L87.5578 21.3532L86.9272 21.9015L86.6211 21.6205L89.4862 18.7656L92.4198 21.0314L93.3703 20.0934L93.649 20.4242L92.7077 21.3803V29.1521L93.4708 29.646L94.3527 28.7895L94.6451 29.0841L91.4099 32.3242L89.0886 30.6611V28.6808L85.5655 32.2607L81.8323 29.646L80.8635 30.5523L80.5528 30.2532L81.7363 29.075V22.5269L80.2055 21.4347" fill="#A1A1AA"/>
<path d="M101.229 20.8359V22.499L104.615 18.6426L108.024 21.0489L108.832 20.2105L109.143 20.496L109.015 20.5731L108.188 21.5247V28.7345L109.294 29.5909L110.03 28.7617L110.336 29.0653L107.457 32.3099L104.797 30.2118V22.9204L102.705 21.4703L101.215 23.1697V29.6091L101.978 30.4383C101.946 30.4383 101.978 30.4882 101.946 30.5063C101.002 31.0561 100.108 31.6853 99.273 32.387C99.273 32.387 97.7467 31.0819 96.9882 30.5471L97.6005 29.7496V22.3494L96.1657 21.3208L95.6356 21.8691L95.3203 21.5881L96.8877 19.8344L97.9935 18.5293L101.229 20.8359Z" fill="#A1A1AA"/>
<path d="M75.5812 20.8188C75.0828 20.5643 74.5549 20.371 74.0093 20.2432C74.1647 20.0575 74.9963 19.0696 75.2248 18.8067L75.7274 18.3264C75.7206 18.3836 75.7206 18.4414 75.7274 18.4986C75.7255 18.6318 75.7532 18.7637 75.8085 18.8851C75.8638 19.0065 75.9454 19.1142 76.0475 19.2008C76.1496 19.2873 76.2696 19.3505 76.3991 19.3857C76.5286 19.421 76.6644 19.4276 76.7967 19.4049C77.0822 19.3322 77.3336 19.1639 77.5084 18.9286C77.6833 18.6933 77.7709 18.4054 77.7563 18.1134C77.7583 17.9802 77.7306 17.8483 77.6753 17.7269C77.62 17.6055 77.5384 17.4978 77.4363 17.4112C77.3342 17.3247 77.2141 17.2615 77.0846 17.2263C76.9551 17.191 76.8194 17.1844 76.6871 17.2071H76.6368L76.5637 17.2343L76.4723 17.2705C75.7457 17.5787 75.1014 18.3627 74.5896 19.0197C74.1327 19.5771 73.7215 20.0575 73.6438 20.139C72.5151 19.9125 70.902 19.7312 69.7322 19.6179C71.8845 17.198 73.726 15.2177 76.3352 12.322L76.0839 12.0501C75.6269 12.5667 75.5447 12.6256 74.9232 13.2736C73.6915 12.5404 72.3471 12.0123 70.9432 11.7103C69.3846 11.3887 67.7823 11.332 66.2046 11.5426C64.7436 11.8208 63.3993 12.5244 62.3434 13.5637C61.5709 14.2854 60.9686 15.1674 60.5795 16.1467C60.2255 16.9758 60.1254 17.8899 60.2917 18.775C60.4242 19.4505 60.7402 20.0772 61.2056 20.5877C61.3838 20.846 62.3571 21.92 66.4422 22.6949C65.9853 23.1979 65.6654 23.5649 65.1582 24.0861C64.9247 24.3614 64.6645 24.6134 64.3814 24.8383C64.3912 24.8041 64.3988 24.7693 64.4042 24.7341C64.4356 24.6024 64.4369 24.4653 64.4079 24.333C64.3789 24.2008 64.3204 24.0766 64.2367 23.9697C64.153 23.8627 64.0462 23.7758 63.9242 23.7151C63.8021 23.6545 63.6679 23.6218 63.5314 23.6193C63.2372 23.6403 62.9599 23.7636 62.7483 23.9676C62.5368 24.1715 62.4047 24.443 62.3753 24.7341C62.3447 24.8655 62.3441 25.002 62.3734 25.1338C62.4028 25.2655 62.4614 25.389 62.545 25.4954C62.6287 25.6018 62.7352 25.6883 62.8568 25.7487C62.9785 25.8091 63.1121 25.8417 63.2481 25.8443C63.3347 25.8438 63.4208 25.8315 63.504 25.8081H63.568C64.0706 25.6268 64.4819 25.4138 65.638 24.1133C65.8802 23.8459 66.4605 23.2296 66.8763 22.79C67.5252 22.9033 68.2472 23.0121 69.056 23.1072C69.8648 23.2024 70.5045 23.3066 71.0803 23.429C70.1664 24.58 69.385 25.5634 68.2563 26.9047C65.2202 26.563 62.1506 27.1345 59.4463 28.5452C57.8424 29.4152 56.2019 30.6342 55.6399 32.5692C55.4639 33.1207 55.4638 33.7126 55.6396 34.2641C55.8154 34.8156 56.1587 35.2998 56.6223 35.6507C57.7602 36.412 59.2224 35.7776 60.479 35.1975C62.3388 34.2912 63.7599 32.9091 65.0942 31.468C65.6106 30.9061 66.6433 29.6554 66.6844 29.592C67.4819 29.7866 68.2568 30.063 68.9966 30.4167C69.7892 30.8058 70.5318 31.2881 71.2082 31.8532C71.2493 31.8849 72.0581 32.687 72.0399 32.7097L72.474 32.3291C75.0237 30.2128 77.5004 27.7068 77.9117 24.4849C78.0853 22.6994 76.7373 21.3535 75.6269 20.8596L75.5812 20.8188ZM62.3753 18.5212C61.6945 18.1134 61.1324 17.6149 61.1736 16.84C61.1863 16.2696 61.3578 15.7138 61.6691 15.234C61.9803 14.7542 62.4193 14.369 62.9374 14.1211C65.2999 13.0244 67.6668 13.618 69.5129 14.3884C70.5292 14.8366 71.4867 15.4057 72.3643 16.0832C70.9569 17.7191 70.6096 18.1089 69.2433 19.6496C66.2823 19.4457 63.0562 19.0696 62.3891 18.5349L62.3753 18.5212ZM65.6243 30.2264C64.3826 31.7784 62.8743 33.1007 61.169 34.1326C60.2078 34.8257 59.049 35.1971 57.8607 35.193C57.5124 35.1971 57.1691 35.1112 56.8645 34.9438C56.5615 34.7065 56.3478 34.3751 56.2574 34.0028C56.1671 33.6306 56.2055 33.239 56.3665 32.891C57.189 30.9922 59.8758 29.6781 62.7638 29.302C63.9164 29.1459 65.0887 29.2167 66.2137 29.5104L65.6197 30.2264H65.6243ZM68.7224 27.0543C69.6729 25.8171 70.5822 24.7341 71.4916 23.5695L71.985 23.6873C72.1955 23.7412 72.403 23.8063 72.6065 23.8821C73.3712 24.1459 74.0897 24.5266 74.7359 25.0105C75.0769 25.2464 75.3603 25.5552 75.565 25.9141C75.7696 26.2731 75.8904 26.673 75.9185 27.0844C75.9466 27.4958 75.8812 27.9083 75.7271 28.2913C75.573 28.6743 75.3343 29.0181 75.0283 29.2974C75.0283 29.2974 74.9324 29.4016 74.8593 29.4696L74.7405 29.5466C72.9141 28.3411 70.8709 27.4949 68.7224 27.0543Z" fill="#A1A1AA"/>
<path d="M43.6115 5.76419L40.0381 6.55269V6.45751C40.2587 6.4035 40.4657 6.30475 40.6459 6.16749C40.7026 6.06528 40.7375 5.95261 40.7485 5.83647C40.7595 5.72032 40.7464 5.60317 40.7098 5.49228C40.6687 5.20226 40.5728 4.70831 40.4494 4.15999C40.326 3.61166 40.2757 3.36242 40.1249 2.76878C40.0153 2.31562 39.9604 2.18874 39.7776 2.12076C39.5768 2.08375 39.3708 2.08375 39.1699 2.12076V2.02108L41.9116 1.42744C42.3686 1.32321 42.5148 1.28696 42.5651 1.14648H42.6382L42.8164 2.21594H42.7296C42.7296 2.21594 42.629 1.84435 42.4463 1.76278C42.2263 1.70367 41.9945 1.70367 41.7745 1.76278C41.6146 1.78997 41.3953 1.83528 41.2033 1.87607L40.7464 1.98028C40.8515 2.55127 40.9886 3.21741 41.1074 3.75667L42.2315 3.48932C42.35 3.47134 42.4567 3.40786 42.5285 3.31258C42.5935 3.17082 42.6157 3.01343 42.5925 2.85942H42.6747L42.9855 4.24609H42.9032C42.8282 4.05762 42.7128 3.88756 42.5651 3.74762L41.1942 4.05577C41.1942 4.05577 41.3541 4.80802 41.4866 5.27931C41.6192 5.7506 41.7425 5.93186 42.4005 5.78685C42.8293 5.71566 43.2201 5.49949 43.5064 5.17506C43.5997 5.01504 43.6646 4.84031 43.6983 4.65848H43.7805L43.6663 5.76419" fill="#A1A1AA"/>
<path d="M36.6182 2.863C36.4811 2.98082 36.472 3.13944 36.5862 3.58353C36.8787 4.66659 37.1163 5.45508 37.5001 6.71486C37.5458 6.878 37.6738 7.24505 37.6738 7.24505L37.5184 7.32211L33.1545 4.70283C33.1545 4.70283 33.648 6.35234 33.8719 7.06381C34.0958 7.77527 34.1826 7.84322 34.3563 7.86134C34.5566 7.8765 34.758 7.86432 34.9549 7.82511L34.9869 7.92026L33.0083 8.49124L32.9809 8.3961C33.1695 8.32361 33.3465 8.22438 33.5064 8.10153C33.6343 7.98824 33.6252 7.74807 33.5064 7.25866C33.2596 6.26624 32.7295 4.42641 32.7295 4.42641C32.5663 4.31828 32.3897 4.23146 32.2041 4.1681C32.0167 4.12053 31.8203 4.12053 31.6329 4.1681L31.6055 4.07293L33.6069 3.4929L33.6343 3.58804C33.6343 3.58804 33.2962 3.71948 33.2779 3.91887C34.731 4.82519 37.0021 6.15295 37.0021 6.15295C37.0021 6.15295 36.5816 4.79347 36.2481 3.81012C36.0516 3.2346 35.951 3.1213 35.7271 3.11677C35.5461 3.10354 35.3644 3.10354 35.1834 3.11677V3.02613L37.1117 2.46875L37.1391 2.55939C36.9772 2.63669 36.824 2.73087 36.6822 2.84034" fill="#A1A1AA"/>
<path d="M51.8824 0.33612C51.6996 0.458473 51.5123 0.653339 51.2792 1.41918C50.8223 2.86476 50.2602 4.96744 50.2602 4.96744L50.0774 4.99916C50.0774 4.99916 49.9677 4.75898 49.8901 4.57319C49.3509 3.40403 48.469 1.71825 48.469 1.71825C48.469 1.71825 47.9206 3.49919 47.4408 5.27105L47.258 5.30277L47.0798 4.88587C46.5955 3.79375 46.1065 2.76508 45.6039 1.71375C45.5136 1.45796 45.3379 1.24047 45.1058 1.09743C44.9148 1.01277 44.7072 0.97101 44.498 0.975092V0.879918L46.7325 0.639757V0.739439C46.5589 0.789287 46.2162 0.848194 46.2482 1.16088C46.2761 1.34473 46.3316 1.52342 46.4127 1.69107C46.6366 2.20314 46.961 2.90554 47.4774 3.99313C47.7835 2.95992 48.2542 1.27417 48.2542 1.27417C48.1711 1.05765 48.0076 0.88092 47.7972 0.780236C47.6381 0.702825 47.4627 0.663996 47.2855 0.666946V0.567236L49.5702 0.327075V0.426757C49.4194 0.46301 48.9122 0.549104 48.9533 0.929759C48.9813 1.10985 49.0384 1.2843 49.1224 1.44637C49.5062 2.25299 49.8581 2.91461 50.2831 3.71217C50.2831 3.71217 50.6486 2.39347 50.8679 1.44637C50.9416 1.17929 50.9755 0.902956 50.9685 0.626149C50.9365 0.318 50.5983 0.349719 50.3744 0.340656V0.240973L52.4033 0.0234375V0.123147C52.2203 0.157931 52.0444 0.222218 51.8824 0.313467" fill="#A1A1AA"/>
<path d="M61.3892 0.484885C61.1628 0.596549 60.9727 0.769321 60.8409 0.983351C60.3839 1.61324 59.6802 2.73708 59.6802 2.73708C59.6475 2.95032 59.6262 3.16513 59.6162 3.38059C59.6162 3.59357 59.5934 3.81109 59.5888 3.96969C59.5888 4.25971 59.5888 4.47722 59.7944 4.60864C59.9796 4.68759 60.1749 4.74098 60.3748 4.76726V4.86694L57.9347 4.70381V4.60864C58.1364 4.60407 58.3371 4.57825 58.5333 4.53161C58.7206 4.46816 58.7846 4.29143 58.8257 3.93343C58.8668 3.57543 58.908 2.93647 58.908 2.93647C58.908 2.93647 58.2774 1.55434 57.8479 0.761307C57.7541 0.56169 57.6167 0.385229 57.4457 0.244697C57.3259 0.170674 57.1922 0.12138 57.0527 0.0997097V0L59.0679 0.131407V0.231116C58.9354 0.231116 58.6109 0.231124 58.6109 0.493957C58.617 0.652891 58.6609 0.808154 58.7389 0.947118C58.8531 1.22355 59.5066 2.49238 59.5066 2.49238C59.813 2.04227 60.0952 1.57637 60.3519 1.09664C60.4335 0.956501 60.4892 0.803039 60.5164 0.64348C60.5164 0.326268 60.1966 0.303615 60.0595 0.280957V0.181275L61.8279 0.294565V0.398784C61.6901 0.399194 61.5537 0.425321 61.4257 0.475813" fill="#A1A1AA"/>
<path d="M64.9951 5.46521C64.6712 5.41374 64.3608 5.29871 64.0822 5.12686C63.8036 4.95501 63.5624 4.72979 63.3726 4.46438C63.1828 4.19897 63.0484 3.8987 62.977 3.58113C62.9057 3.26355 62.8989 2.93504 62.9571 2.61484C63.0235 2.28907 63.1552 1.97984 63.3445 1.70559C63.5338 1.43133 63.7768 1.19763 64.059 1.01838C64.3412 0.839127 64.6569 0.717987 64.9873 0.662163C65.3177 0.606339 65.656 0.616989 65.9821 0.693445C66.3082 0.737479 66.6218 0.846937 66.9038 1.01517C67.1858 1.18341 67.4303 1.40688 67.6223 1.67193C67.8143 1.93698 67.9498 2.23806 68.0206 2.55679C68.0913 2.87551 68.0958 3.20519 68.0338 3.5257C67.9674 3.85334 67.8353 4.16439 67.6453 4.44046C67.4554 4.71652 67.2115 4.95197 66.9281 5.13284C66.6448 5.31371 66.3277 5.43633 65.9956 5.49342C65.6636 5.55052 65.3234 5.54092 64.9951 5.46521ZM65.8268 0.933606C64.7712 0.734215 64.0812 1.69038 63.8847 2.74625C63.6288 4.06948 64.1909 5.07548 65.1413 5.25675C66.2015 5.45614 66.8869 4.59966 67.1154 3.44411C67.3438 2.28855 66.9097 1.17832 65.8268 0.969866" fill="#A1A1AA"/>
<path d="M73.9394 6.99146C73.5748 6.93766 73.2305 6.79074 72.9405 6.5651C72.6505 6.33946 72.4247 6.04288 72.2852 5.70449C72.1242 5.30029 72.0182 4.87663 71.9699 4.4447C71.7551 4.4447 71.1885 4.40393 71.1885 4.40393C71.1885 4.40393 71.0651 5.00662 71.0011 5.43712C70.9692 5.67729 70.8823 6.05341 71.1748 6.19842C71.3256 6.2664 71.5998 6.36156 71.5998 6.36156V6.45673L69.3516 6.00357V5.9084C69.54 5.94293 69.734 5.93363 69.9182 5.88121C70.1421 5.77245 70.1923 5.51868 70.2517 5.31476C70.3111 5.11083 70.4528 4.49907 70.5671 3.95527C70.663 3.50211 70.7727 2.94926 70.8412 2.54142C70.9098 2.13357 70.9189 1.94325 70.791 1.8073C70.6481 1.68845 70.479 1.60463 70.2974 1.5626V1.46289C70.2974 1.46289 71.4718 1.68948 72.0613 1.81183C73.1351 2.03841 73.8891 2.59127 73.7291 3.3979C73.6547 3.64397 73.5072 3.86208 73.3058 4.02376C73.1045 4.18543 72.8587 4.28317 72.6005 4.30422C72.7109 4.83631 72.9069 5.34735 73.1808 5.81779C73.3586 6.11741 73.5839 6.38669 73.8479 6.61532C74.083 6.79026 74.3476 6.92225 74.6294 7.00506V7.0957C74.4603 7.0957 74.1724 7.03677 73.9439 6.99146H73.9394ZM71.6957 1.96592L71.2388 4.01872L71.9516 4.24984C72.1743 4.1988 72.3779 4.08677 72.5395 3.92654C72.7011 3.7663 72.8141 3.5643 72.8655 3.34352C73.0483 2.49158 72.1664 2.09279 71.6592 1.98404" fill="#A1A1AA"/>
<path d="M75.8633 7.52142L75.8952 7.42628C76.0806 7.46109 76.2687 7.47928 76.4573 7.48065C76.6081 7.48065 76.7452 7.37643 76.9143 6.9142C77.0834 6.45198 77.225 6.06678 77.4078 5.51846C77.5906 4.97013 77.7094 4.63934 77.8647 4.19524C77.9378 3.96866 78.0201 3.74207 77.8647 3.56534C77.7326 3.4324 77.5779 3.32352 77.4078 3.24361L77.4397 3.14844L79.496 3.84176L79.4641 3.93693C79.3081 3.88598 79.1435 3.86596 78.9797 3.87802C78.7786 3.91427 78.6736 4.14993 78.5685 4.43089C78.3994 4.88405 78.2806 5.21486 78.1115 5.736C77.9424 6.25713 77.8053 6.64231 77.6546 7.17704C77.5357 7.56223 77.5266 7.73443 77.6546 7.88397C77.7939 7.99823 77.9474 8.09418 78.1115 8.16947L78.0795 8.26461L75.8633 7.52142ZM78.605 8.42774L78.637 8.3326C78.637 8.3326 78.9614 8.42776 79.0939 8.30087C79.0813 8.14461 79.0427 7.99149 78.9797 7.84771C78.6232 6.86888 78.212 5.96708 78.212 5.96708C78.7604 5.64081 79.2539 5.3236 79.7611 4.95201C80.0535 4.73449 80.1952 4.60307 80.2454 4.46259C80.2957 4.32211 80.0946 4.14086 79.8981 4.05022L79.9302 3.95505L81.8814 4.6076L81.8493 4.70278C81.6803 4.66652 81.2005 4.47167 80.2729 4.9928C79.9256 5.1922 79.199 5.64535 78.9569 5.83114C79.2676 6.68308 79.5555 7.40362 79.7657 7.90662C79.8734 8.23594 80.06 8.53447 80.3094 8.77669C80.422 8.87065 80.5484 8.94705 80.6841 9.00327L80.6521 9.0939L78.605 8.42774Z" fill="#A1A1AA"/>
</svg>
