<svg width="160" height="27" viewBox="0 0 160 27" fill="none" xmlns="http://www.w3.org/2000/svg">
<g clip-path="url(#clip0_4_1971)">
<path fill-rule="evenodd" clip-rule="evenodd" d="M19.309 24.273C17.2486 22.9553 15.6826 18.5083 15.6826 13.1553C15.6826 12.9906 15.6826 12.7435 15.6826 12.5788C9.91348 11.673 5.79265 9.20237 5.62782 6.23766C4.22674 7.96707 3.40257 10.0259 3.40257 12.1671C3.48499 18.5906 10.4904 23.7788 19.309 24.273ZM0.847656 12.7435C0.847656 5.66119 9.66623 -0.103516 20.6276 -0.103516C31.5066 -0.103516 40.4076 5.66119 40.4076 12.7435C40.4076 19.8259 31.589 25.5906 20.6276 25.5906C9.66623 25.5906 0.847656 19.8259 0.847656 12.7435ZM20.5452 1.70825C22.688 1.70825 24.4188 4.92001 25.0781 9.36707C29.1989 8.70825 32.0835 7.22589 32.0835 5.57883C32.0835 3.27295 26.8913 1.46119 20.5452 1.46119C14.1991 1.46119 9.0069 3.3553 9.0069 5.57883C9.0069 7.30825 11.8915 8.7906 16.0123 9.36707C16.6716 4.92001 18.4848 1.70825 20.5452 1.70825ZM21.8639 24.273C30.6824 23.7788 37.6879 18.5906 37.6879 12.2494C37.6879 10.1083 36.8637 8.04942 35.4626 6.32001C35.3802 9.28472 31.1769 11.7553 25.4078 12.6612C25.4078 12.8259 25.4078 13.073 25.4078 13.2377C25.4078 18.5082 23.9243 22.9553 21.8639 24.273ZM20.5452 9.69648C21.4518 9.69648 22.4408 9.69648 23.265 9.61413C22.8529 6.73178 21.7815 4.7553 20.5452 4.7553C19.309 4.7553 18.2375 6.73178 17.8255 9.61413C18.732 9.69648 19.6386 9.69648 20.5452 9.69648ZM20.5452 20.2377C22.1111 20.2377 23.4298 16.9435 23.5122 12.8259C22.5232 12.9082 21.5342 12.9906 20.5452 12.9906C19.5562 12.9906 18.5672 12.9082 17.5782 12.8259C17.6606 16.9435 18.9793 20.2377 20.5452 20.2377Z" fill="#A1A1AA"/>
<path fill-rule="evenodd" clip-rule="evenodd" d="M101.645 12.7434C101.645 7.30807 106.013 2.94336 111.452 2.94336C116.892 2.94336 121.26 7.30807 121.26 12.7434C121.26 18.1787 116.892 22.5434 111.452 22.5434C106.095 22.5434 101.645 18.1787 101.645 12.7434ZM111.535 18.9198C114.584 18.9198 117.056 16.1198 117.056 12.661C117.056 9.20218 114.584 6.40218 111.535 6.40218C108.485 6.40218 106.013 9.20218 106.013 12.661C106.013 16.2022 108.485 18.9198 111.535 18.9198Z" fill="#A1A1AA"/>
<path fill-rule="evenodd" clip-rule="evenodd" d="M132.472 6.97803V22.131H128.351V6.97803H122.582V3.60156H138.324V6.97803H132.554H132.472Z" fill="#A1A1AA"/>
<path fill-rule="evenodd" clip-rule="evenodd" d="M143.341 17.931L141.775 22.131H136.912L144.577 3.60156H147.132H149.687L157.351 22.131H152.489L150.923 17.931H147.132H143.341ZM147.132 14.8016H149.769L147.214 8.04862L144.659 14.8016H147.132Z" fill="#A1A1AA"/>
<path fill-rule="evenodd" clip-rule="evenodd" d="M56.0677 6.97803V22.131H51.9469V6.97803H46.1777V3.60156H61.8369V6.97803H56.0677Z" fill="#A1A1AA"/>
<path fill-rule="evenodd" clip-rule="evenodd" d="M62.9062 12.7434C62.9062 7.30807 67.2743 2.94336 72.7138 2.94336C78.1533 2.94336 82.5214 7.30807 82.5214 12.7434C82.5214 18.1787 78.1533 22.5434 72.7138 22.5434C67.3567 22.5434 62.9062 18.1787 62.9062 12.7434ZM72.7962 18.9198C75.8457 18.9198 78.3182 16.1198 78.3182 12.661C78.3182 9.20218 75.8457 6.40218 72.7962 6.40218C69.7468 6.40218 67.2743 9.20218 67.2743 12.661C67.2743 16.2022 69.7468 18.9198 72.7962 18.9198Z" fill="#A1A1AA"/>
<path fill-rule="evenodd" clip-rule="evenodd" d="M92.165 22.131H94.2254V15.131V15.0486L101.478 3.60156H96.6155L92.165 11.3427L87.6321 3.60156H82.7695L90.0222 15.0486V15.131V22.131H92.165Z" fill="#A1A1AA"/>
</g>
<defs>
<clipPath id="clip0_4_1971">
<rect width="159.064" height="25.5294" fill="white" transform="translate(0.175781 0.751953)"/>
</clipPath>
</defs>
</svg>
