<svg width="127" height="36" viewBox="0 0 127 36" fill="none" xmlns="http://www.w3.org/2000/svg">
<path d="M69.923 24.6256C69.7906 24.3948 69.6004 24.2024 69.3711 24.0674C69.5845 24.2219 69.7709 24.4105 69.923 24.6256" fill="#312F2A"/>
<path d="M69.2679 13.0824C63.1377 12.6515 60.9972 12.412 60.3292 11.9451L60.3193 11.9374C60.2914 11.9178 60.265 11.8963 60.2401 11.8731C58.9168 10.7613 61.6277 9.46514 64.285 9.52871C66.6177 9.58451 68.3475 9.74061 68.7116 11.4669H84.3715C81.9016 2.57254 75.4426 0 63.9011 0C52.1221 0 44.9972 4.66193 44.9972 12.5173C44.9972 19.2933 49.9844 22.2113 60.1482 22.9176C66.1632 23.3655 68.5362 23.612 69.3782 24.1184H69.3845C69.3923 24.1241 69.398 24.1297 69.405 24.1347C69.5299 24.2074 69.6337 24.3113 69.7062 24.4363C69.7967 24.5664 69.8375 24.7247 69.8211 24.8823C69.8048 25.0399 69.7324 25.1864 69.6171 25.2952C69.6065 25.3079 69.5931 25.3207 69.581 25.3334C68.9448 26.0291 67.1521 26.5758 65.3842 26.5342C64.0493 26.5867 62.7332 26.2069 61.632 25.4513C61.4485 25.3576 61.2857 25.228 61.1533 25.0703C61.0208 24.9125 60.9213 24.7299 60.8607 24.5331H44.1426C45.3302 32.2514 50.3633 36 65.1375 36C79.0061 36 84.7532 30.8705 84.7532 23.8119C84.7532 16.4234 79.291 13.7887 69.2721 13.0824" fill="#A1A1AA"/>
<path d="M45.8116 35.8307H30.3185L27.6393 27.2979H18.9742L16.2653 35.8293H0.724854L14.5391 1.39453H32.3812L45.8123 35.8293L45.8116 35.8307ZM23.3633 13.5897L23.0282 15.1684L20.2784 23.4094H26.4199L23.6991 15.2165L23.3633 13.5918V13.5897Z" fill="#A1A1AA"/>
<path d="M111.207 1.48424V16.6581H102.972V1.39453H87.9153V35.8293H102.972V20.5466H111.207V35.8293H126.264V1.39453L111.207 1.48424Z" fill="#A1A1AA"/>
</svg>
