<svg width="634" height="74" viewBox="0 0 634 74" fill="none" xmlns="http://www.w3.org/2000/svg">
<mask id="mask0_214_3954" style="mask-type:alpha" maskUnits="userSpaceOnUse" x="0" y="0" width="634" height="74">
<path fill-rule="evenodd" clip-rule="evenodd" d="M629.685 0.703995C624.422 1.8712 617.238 3.20415 604.788 5.32296C577.372 9.98926 560.066 14.1061 509.033 28.1027C474.325 37.6221 463.436 40.3398 451.197 42.5366C445.813 43.5031 438.447 43.8159 435.737 43.1929L434.257 42.8527L434.529 41.8566C435.128 39.6633 437.526 36.9004 444.395 30.4878C455.341 20.2701 458.118 16.3238 457.6 11.7202C456.326 0.413721 430.654 2.53905 381.269 18.0396C377.673 19.1685 366.814 22.814 357.139 26.1408C319.296 39.1528 311.913 41.4264 307.373 41.4647L305.075 41.484L305.164 40.5082C305.304 38.971 306.859 36.576 311.941 30.073C322.275 16.8505 323.671 11.416 317.726 7.55557C312.132 3.92249 294.415 5.37492 272.519 11.2614C256.065 15.6846 222.031 27.0842 175.998 43.5902C133.249 58.9185 126.636 61.0893 125.095 60.2979C124.572 60.0295 126.887 57.5447 137.131 47.3737C156.929 27.719 160.221 23.4537 160.268 17.3995C160.355 6.29076 146.335 7.69608 104.507 22.9888C77.0046 33.0441 52.4607 44.3035 20.3475 61.5968C3.397 70.725 0 72.7114 0 73.4962C0 74.0934 1.00198 74.1477 1.33636 73.5686C1.60255 73.1086 7.45165 70.07 15.3208 66.3044C18.1647 64.9434 23.594 62.2455 27.3859 60.3091C45.7831 50.9142 78.1782 36.2054 93.2653 30.3965C121.324 19.5936 141.031 13.5422 149.569 13.1072C154.451 12.8586 155.3 13.5773 155.014 17.715C154.649 22.9924 150.384 28.4191 132.363 46.5323C118.492 60.475 117.665 61.7975 122.095 62.9521C127.7 64.4127 135.129 62.2808 180.402 46.2193C263.026 16.9073 294.317 8.00886 310.213 9.30459C317.773 9.9209 316.585 16.3164 306.468 29.4605C298.608 39.6727 297.773 42.4466 302.087 44.0281C308.083 46.2269 315.968 44.2555 362.337 28.9645C402.775 15.6292 425.396 9.81152 440.054 8.97687C448.607 8.48971 450.34 9.27977 449.943 13.4856C449.627 16.8354 447.212 19.8612 438.005 28.4426C424.251 41.2609 423.4 45.7763 434.435 47.3895C446.238 49.1151 458.336 46.7117 512.864 31.8084C541.978 23.851 552.039 21.233 573.864 15.9349C581.608 14.055 592.467 11.2456 597.994 9.69204C603.522 8.13822 612.784 5.59241 618.577 4.0346C624.37 2.47678 630.144 0.924014 631.408 0.584096C634.471 -0.239405 633.695 -0.185555 629.685 0.703995Z" fill="#18181B"/>
</mask>
<g mask="url(#mask0_214_3954)">
<rect x="8" y="-14" width="665" height="80" fill="#A1A1AA"/>
</g>
</svg>
