<svg width="145" height="25" viewBox="0 0 145 25" fill="none" xmlns="http://www.w3.org/2000/svg">
<path d="M116.166 1.42959V10.2989H128.041C128.041 10.3294 128.031 1.42756 128.041 1.42959C128.031 1.42756 133.862 1.42959 133.923 1.42959C133.923 1.42959 133.943 23.58 133.923 23.6055H128.041V13.8444C128.041 13.8749 116.166 13.8444 116.166 13.8444C116.176 13.8851 116.166 23.6126 116.166 23.6055H110.295C110.295 23.6055 110.325 1.42959 110.295 1.42959H116.166Z" fill="#A1A1AA"/>
<path d="M60.3716 1.42959V5.1998H51.3763V23.6055H45.505V5.1998H36.5098C36.5098 5.1998 36.5199 1.43773 36.5098 1.42959C36.5199 1.43773 60.3716 1.42959 60.3716 1.42959Z" fill="#A1A1AA"/>
<path d="M69.2352 5.20054L65.1446 15.29H73.3258L69.2352 5.20054ZM83.2063 23.6062H76.6634C76.6736 23.6062 74.7402 18.8406 74.7402 18.8406H63.72C63.72 18.8406 61.8273 23.6133 61.807 23.6062C61.807 23.6133 55.2539 23.6062 55.2539 23.6062L65.633 1.43034C65.633 1.4405 72.8374 1.43034 72.8374 1.43034L83.2063 23.6062Z" fill="#A1A1AA"/>
<path d="M138.584 23.6075H144.465V1.43164H138.584V23.6075Z" fill="#A1A1AA"/>
<path d="M6.12174 1.43154C6.12174 1.43154 6.11156 10.3659 6.12174 10.3009H17.9967C17.9967 10.3314 17.9763 1.42951 17.9967 1.43154C17.9763 1.42951 23.8171 1.43154 23.8782 1.43154C23.8782 1.43154 23.8985 23.582 23.8782 23.6074H17.9967V13.8464C17.9967 13.8769 6.12174 13.8464 6.12174 13.8464C6.12174 13.887 6.11156 23.6145 6.12174 23.6074H0.240234C0.240234 23.6074 0.270761 1.43154 0.240234 1.43154H6.12174Z" fill="#A1A1AA"/>
<path d="M28.5352 23.6075H34.4065V1.43164H28.5352V23.6075Z" fill="#A1A1AA"/>
<path d="M83.0144 17.47C82.4954 15.9743 82.2207 14.3983 82.2207 12.739C82.2207 10.4095 82.6277 8.1533 83.747 6.2743C84.8969 4.34548 86.6674 2.85692 88.8043 2.06586C90.8293 1.30125 93.017 0.881321 95.3167 0.881321C97.9522 0.881321 100.445 1.45783 102.735 2.44207C104.851 3.35412 106.449 5.26057 106.927 7.5656C107.029 8.02112 107.1 8.49799 107.131 8.97384H100.964C100.944 8.37597 100.852 7.79438 100.649 7.2687C100.181 6.04247 99.1529 5.08365 97.8911 4.70541C97.0771 4.4502 96.202 4.31802 95.3167 4.31802C94.2992 4.31802 93.3121 4.48986 92.4065 4.81726C90.9005 5.34598 89.7303 6.56713 89.191 8.07297C88.672 9.52696 88.3871 11.1019 88.3871 12.739C88.3871 14.0974 88.611 15.4039 88.9468 16.6332C89.3945 18.2468 90.6156 19.5473 92.1623 20.1401C93.1391 20.5061 94.2076 20.7206 95.3167 20.7206C96.263 20.7206 97.1687 20.5783 98.0336 20.3017C99.1834 19.9316 100.12 19.0847 100.608 17.9957C100.923 17.2728 101.086 16.4715 101.086 15.6154H107.283C107.243 16.3404 107.141 17.0542 106.988 17.7212C106.449 19.9164 104.912 21.7608 102.877 22.6139C100.547 23.5869 98.0031 24.1543 95.3167 24.1543C93.2409 24.1543 91.2261 23.8289 89.3538 23.2392C86.4843 22.3383 84.0014 20.2743 83.0144 17.47Z" fill="#A1A1AA"/>
</svg>
