<svg width="44" height="44" viewBox="0 0 44 44" fill="none" xmlns="http://www.w3.org/2000/svg">
<g clip-path="url(#clip0_449_8973)">
<path d="M29.334 7.33337H14.6673C10.6172 7.33337 7.33398 10.6166 7.33398 14.6667V29.3334C7.33398 33.3835 10.6172 36.6667 14.6673 36.6667H29.334C33.3841 36.6667 36.6673 33.3835 36.6673 29.3334V14.6667C36.6673 10.6166 33.3841 7.33337 29.334 7.33337Z" stroke="white" stroke-width="2.75" stroke-linecap="round" stroke-linejoin="round"/>
<path d="M22 27.5C25.0376 27.5 27.5 25.0376 27.5 22C27.5 18.9624 25.0376 16.5 22 16.5C18.9624 16.5 16.5 18.9624 16.5 22C16.5 25.0376 18.9624 27.5 22 27.5Z" stroke="white" stroke-width="2.75" stroke-linecap="round" stroke-linejoin="round"/>
<path d="M30.25 13.75V13.751" stroke="white" stroke-width="2.75" stroke-linecap="round" stroke-linejoin="round"/>
</g>
<defs>
<clipPath id="clip0_449_8973">
<rect width="44" height="44" fill="white"/>
</clipPath>
</defs>
</svg>
