<svg width="163" height="38" viewBox="0 0 163 38" fill="none" xmlns="http://www.w3.org/2000/svg">
<path d="M39.6428 17.4792H50.4833V28.8489C50.4833 32.2799 48.4169 34.403 45.0862 34.403C41.7554 34.403 39.6891 32.2799 39.6891 28.8489V25.5103H36.312V28.8182C36.312 34.0646 39.8278 37.5878 45.0707 37.5878C50.3136 37.5878 53.8295 34.0646 53.8295 28.8182V14.3252H39.612V17.4792H39.6428Z" fill="#A1A1AA"/>
<path d="M71.1464 28.7874C71.1464 32.2183 69.08 34.3415 65.7493 34.3415C62.4185 34.3415 60.3521 32.2183 60.3521 28.7874V14.3252H56.9751V28.7566C56.9751 34.003 60.4909 37.5263 65.7338 37.5263C70.9767 37.5263 74.4926 34.003 74.4926 28.7566V14.3252H71.1464V28.7874Z" fill="#A1A1AA"/>
<path d="M129.204 14.3252H125.842V37.2955H141.586V34.1415H129.204V14.3252Z" fill="#A1A1AA"/>
<path d="M93.6136 14.3252V34.1415H90.5604L86.9212 14.3252H77.6382V37.2955H81.0152V17.4792H84.0685L87.7231 37.2955H96.9907V14.3252H93.6136Z" fill="#A1A1AA"/>
<path d="M109.543 28.6947H116.205C116.066 32.4795 113.799 34.4026 110.191 34.4026C105.596 34.4026 103.036 30.9717 103.036 25.8638C103.036 20.7405 106.135 17.2018 110.73 17.2018C114.138 17.2018 116.744 19.1558 117.531 22.1405L117.639 22.5559L120.892 21.6482L120.785 21.2482C119.659 16.9095 115.711 14.0479 110.73 14.0479C104.161 14.0479 99.5662 18.9558 99.5662 25.8792C99.5662 32.6795 103.745 37.6028 110.191 37.6028C112.92 37.6028 115.064 36.7873 116.559 35.2027C118.009 33.6641 118.996 31.4794 118.98 28.7101H119.906V37.3258H123.082V25.6022H109.543V28.6947Z" fill="#A1A1AA"/>
<path d="M156.93 32.9256C155.681 33.8026 154 34.4026 151.933 34.4026C149.713 34.4026 147.893 33.5872 146.552 32.2794C145.287 31.0332 144.501 29.1562 144.208 26.6792H162.651L162.697 26.3099C162.728 26.0638 162.759 25.8022 162.774 25.5099C162.789 25.233 162.789 24.9868 162.789 24.7714C162.789 21.6636 161.772 19.0635 159.752 17.0634C157.731 15.0633 155.064 14.0479 151.826 14.0479C150.206 14.0479 148.695 14.3402 147.323 14.9094C145.95 15.4787 144.748 16.2941 143.745 17.3095C142.743 18.325 141.957 19.5558 141.386 20.9712C140.831 22.3867 140.538 23.9406 140.538 25.5715C140.538 27.2946 140.8 28.9254 141.34 30.3871C141.864 31.864 142.635 33.1564 143.622 34.218C144.609 35.2796 145.827 36.1258 147.23 36.7104C148.634 37.2951 150.206 37.6028 151.918 37.6028C154.709 37.6028 157.099 36.9104 159.027 35.5411C160.708 34.3411 161.864 32.7872 162.466 30.9255L159.088 30.1409C158.657 31.2794 157.947 32.2025 156.93 32.9256ZM146.536 19.2019C147.97 17.925 149.759 17.1865 151.841 17.1865C153.954 17.1865 155.711 17.9096 157.084 19.1712C158.364 20.3404 159.058 21.7405 159.212 23.4637H144.254C144.455 21.7867 145.21 20.3866 146.536 19.2019Z" fill="#A1A1AA"/>
<path d="M16.4815 14.3248H4.48447V13.3556L15.2478 0.447266H16.4815V14.3248ZM16.4815 14.3248V28.5716H0.151367V37.6028H6.76668C17.1291 37.6028 25.5332 29.2178 25.5332 18.8789V14.3402L16.4815 14.3248Z" fill="#A1A1AA"/>
</svg>
