<svg width="153" height="36" viewBox="0 0 153 36" fill="none" xmlns="http://www.w3.org/2000/svg">
<path opacity="0.5" fill-rule="evenodd" clip-rule="evenodd" d="M26.1082 35.0136C40.2556 35.0136 51.7243 23.5461 51.7243 9.4003C51.7243 7.38962 51.4926 5.43306 51.0544 3.55585C49.2976 3.17513 47.4737 2.97461 45.6029 2.97461C31.4555 2.97461 19.9868 14.4421 19.9868 28.5879C19.9868 30.5986 20.2185 32.5551 20.6567 34.4324C22.4135 34.8131 24.2374 35.0136 26.1082 35.0136Z" fill="#A1A1AA"/>
<path opacity="0.5" fill-rule="evenodd" clip-rule="evenodd" d="M26.1081 35.0136C11.9608 35.0136 0.492029 23.5461 0.492029 9.4003C0.492029 7.40166 0.720972 5.45649 1.15406 3.58958C2.95796 3.18698 4.83362 2.97461 6.75889 2.97461C20.9063 2.97461 32.375 14.4421 32.375 28.5879C32.375 30.5865 32.1461 32.5317 31.713 34.3986C29.9091 34.8012 28.0334 35.0136 26.1081 35.0136Z" fill="#A1A1AA"/>
<path opacity="0.5" fill-rule="evenodd" clip-rule="evenodd" d="M42.8698 28.5908C38.3724 32.5866 32.4497 35.0136 25.9601 35.0136C19.4705 35.0136 13.5478 32.5866 9.05036 28.5908C13.5478 24.595 19.4705 22.168 25.9601 22.168C32.4497 22.168 38.3724 24.595 42.8698 28.5908Z" fill="#A1A1AA"/>
<path d="M73.3972 32.1781C74.5095 32.1781 75.5772 31.9112 76.5115 31.3773C77.0009 31.1548 77.1344 30.8434 77.0009 30.443L76.6005 29.6867C76.467 29.3752 76.2446 29.3308 75.9331 29.5087C75.0878 29.9091 74.3315 30.1316 73.5752 30.1316C72.285 30.1316 70.7278 29.0638 69.8825 28.2185C69.4821 27.8181 68.9927 27.2397 68.3698 26.4834L62.8531 19.8989L72.3739 10.467C72.7744 10.0666 72.5964 9.5772 71.929 9.5772H70.8168C70.4609 9.5772 70.1494 9.71067 69.927 9.97761L60.4506 19.365V0.278791C60.4506 -0.210597 60.1837 -0.477539 59.6943 -0.477539H58.938C58.4486 -0.477539 58.1816 -0.210597 58.1816 0.278791V30.9324C58.1816 31.4218 58.4486 31.6887 58.938 31.6887H59.6943C60.1837 31.6887 60.4506 31.4218 60.4506 30.9324V20.2548L66.5013 27.6401L67.1241 28.3965L67.8805 29.2863C68.1919 29.5087 69.1707 30.5765 69.7045 30.9324C70.5499 31.4663 72.0625 32.3116 73.3972 32.1781Z" fill="#A1A1AA"/>
<path d="M88.9482 32.1781C93.1747 32.1781 96.645 30.0871 98.4246 26.3054V30.9324C98.4246 31.4218 98.647 31.6887 99.1364 31.6887H99.9372C100.427 31.6887 100.694 31.4218 100.694 30.9324V10.3335C100.694 9.84414 100.427 9.5772 99.9372 9.5772H99.1364C98.647 9.5772 98.4246 9.84414 98.4246 10.3335V14.9605C96.645 11.2233 93.2637 9.08781 88.8592 9.08781C85.478 9.08781 82.7641 10.2001 80.762 12.4246C78.76 14.6046 77.7367 17.3629 77.7367 20.6107C77.7367 23.903 78.76 26.6614 80.8065 28.8859C82.8976 31.0659 85.6114 32.1781 88.9482 32.1781ZM89.1262 30.1761C86.3678 30.1761 84.1433 29.2863 82.4972 27.4622C80.851 25.6381 80.0057 23.3246 80.0057 20.6107C80.0057 17.8968 80.8065 15.6723 82.4527 13.8482C84.0988 12.0241 86.2788 11.1343 89.0817 11.1343C91.8845 11.1343 94.109 12.0241 95.8441 13.8482C97.5793 15.6723 98.4691 17.8968 98.4691 20.6107C98.4691 23.4136 97.5793 25.7271 95.7997 27.5067C94.0645 29.2863 91.84 30.1761 89.1262 30.1761Z" fill="#A1A1AA"/>
<path d="M112.86 41.6545C113.26 41.6545 113.527 41.4765 113.705 41.0761L126.652 10.467C126.874 9.88863 126.696 9.5772 126.073 9.5772H125.05C124.561 9.5772 124.294 9.79965 124.16 10.2001L116.419 29.2863L108.366 10.1556C108.233 9.75516 107.921 9.5772 107.521 9.5772H106.498C105.875 9.5772 105.697 9.88863 105.919 10.467L115.173 31.8667L111.614 40.8092C111.392 41.3875 111.57 41.6545 112.192 41.6545H112.86Z" fill="#A1A1AA"/>
<path d="M140.694 32.1781C144.92 32.1781 148.391 30.0871 150.17 26.3054V30.9324C150.17 31.4218 150.393 31.6887 150.882 31.6887H151.683C152.172 31.6887 152.439 31.4218 152.439 30.9324V10.3335C152.439 9.84414 152.172 9.5772 151.683 9.5772H150.882C150.393 9.5772 150.17 9.84414 150.17 10.3335V14.9605C148.391 11.2233 145.009 9.08781 140.605 9.08781C137.224 9.08781 134.51 10.2001 132.508 12.4246C130.506 14.6046 129.482 17.3629 129.482 20.6107C129.482 23.903 130.506 26.6614 132.552 28.8859C134.643 31.0659 137.357 32.1781 140.694 32.1781ZM140.872 30.1761C138.113 30.1761 135.889 29.2863 134.243 27.4622C132.597 25.6381 131.751 23.3246 131.751 20.6107C131.751 17.8968 132.552 15.6723 134.198 13.8482C135.844 12.0241 138.024 11.1343 140.827 11.1343C143.63 11.1343 145.855 12.0241 147.59 13.8482C149.325 15.6723 150.215 17.8968 150.215 20.6107C150.215 23.4136 149.325 25.7271 147.545 27.5067C145.81 29.2863 143.586 30.1761 140.872 30.1761Z" fill="#A1A1AA"/>
</svg>
