<svg width="97" height="44" viewBox="0 0 97 44" fill="none" xmlns="http://www.w3.org/2000/svg">
<path d="M17.6085 43.7836L17.5812 32.6922L12.0504 41.8305H10.0894L4.57982 32.9281V43.7836H0.5V25.2949H4.09716L11.1306 36.7835L18.0578 25.2949H21.6276L21.6823 43.7836H17.6085Z" fill="#A1A1AA"/>
<path d="M36.4282 30.9391C37.6263 31.9843 38.2253 33.5641 38.2253 35.6784V43.7865H34.3033V42.0185C33.5161 43.3385 32.0489 43.9985 29.9017 43.9985C28.9109 44.0217 27.9268 43.8321 27.0179 43.443C26.26 43.1191 25.6129 42.5872 25.1541 41.911C24.7204 41.2505 24.4954 40.4784 24.5075 39.6921C24.4839 39.0907 24.6098 38.4926 24.8743 37.9498C25.1388 37.407 25.5339 36.9359 26.0253 36.5773C27.0372 35.8188 28.5985 35.4395 30.7092 35.4395H34.0483C34.0721 35.0553 34.0099 34.6706 33.8662 34.3125C33.7225 33.9544 33.5008 33.6317 33.2166 33.367C32.6601 32.8832 31.8273 32.6413 30.7183 32.6413C29.9482 32.6419 29.1829 32.7618 28.4507 32.9967C27.7664 33.2057 27.1251 33.5323 26.5565 33.9613L25.0539 31.0824C25.9175 30.5043 26.8754 30.076 27.8861 29.8162C28.9877 29.5175 30.1251 29.3658 31.2677 29.3652C33.4938 29.3652 35.214 29.8898 36.4282 30.9391ZM32.8493 40.7374C33.4036 40.4101 33.822 39.9001 34.0301 39.2979V37.8436H31.1585C29.4403 37.8436 28.5813 38.398 28.5813 39.507C28.574 39.7506 28.6274 39.9923 28.737 40.211C28.8465 40.4296 29.0088 40.6185 29.2096 40.7613C29.7225 41.0923 30.3308 41.2505 30.9429 41.2122C31.6106 41.2289 32.2701 41.0646 32.8493 40.7374V40.7374Z" fill="#A1A1AA"/>
<path d="M50.9156 43.0966C50.4592 43.4168 49.9436 43.6461 49.3978 43.7716C48.7782 43.9231 48.142 43.9983 47.5036 43.9955C45.7854 43.9955 44.4569 43.5635 43.5179 42.6995C42.5789 41.8354 42.1093 40.5682 42.1093 38.8978V33.0624H39.8812V29.8909H42.1093V26.4326H46.2954V29.8909H49.8926V33.0624H46.2985V38.844C46.2654 39.3495 46.4342 39.8478 46.769 40.2327C46.9434 40.4012 47.1519 40.5316 47.381 40.6155C47.6101 40.6994 47.8546 40.7348 48.0986 40.7195C48.7057 40.7361 49.3007 40.5497 49.7863 40.1909L50.9156 43.0966Z" fill="#A1A1AA"/>
<path d="M55.2495 43.059C54.0642 42.4715 53.0688 41.5708 52.3748 40.4578C51.6781 39.3185 51.3205 38.0095 51.3427 36.68C51.3127 35.3619 51.664 34.0625 52.3556 32.9331C53.0473 31.8038 54.0509 30.891 55.2495 30.3011C56.534 29.6626 57.9571 29.3407 59.3961 29.3634C60.7847 29.3321 62.1579 29.6552 63.3818 30.3011C64.4919 30.8985 65.3662 31.8449 65.8649 32.9889L62.6169 34.706C61.8681 33.404 60.7854 32.752 59.3688 32.75C58.8676 32.735 58.3685 32.821 57.9023 33.0028C57.4361 33.1846 57.0127 33.4583 56.658 33.8071C55.9416 34.5119 55.5834 35.4716 55.5834 36.686C55.5834 37.9005 55.9416 38.8601 56.658 39.5649C57.0138 39.9124 57.4381 40.1847 57.9048 40.365C58.3715 40.5453 58.8707 40.6297 59.3718 40.6131C60.8046 40.6131 61.8873 39.9611 62.6199 38.657L65.874 40.4041C65.3593 41.5257 64.4877 42.4522 63.3909 43.044C62.1705 43.7004 60.7958 44.029 59.4052 43.9967C57.9631 44.0208 56.5368 43.699 55.2495 43.059V43.059Z" fill="#A1A1AA"/>
<path d="M81.576 30.6331C82.5231 31.4792 82.9977 32.6738 82.9997 34.2168C82.9985 34.7852 82.9354 35.3518 82.8115 35.907L81.1996 43.7762H77.0105L78.5678 36.1699C78.6431 35.8497 78.6797 35.5219 78.677 35.1933C78.7004 34.8856 78.6584 34.5764 78.5539 34.2854C78.4494 33.9945 78.2846 33.728 78.0699 33.503C77.6601 33.1148 77.0409 32.9207 76.2182 32.9207C75.2436 32.8867 74.2911 33.2115 73.5469 33.8315C72.8386 34.4407 72.36 35.3526 72.1111 36.567L70.6601 43.7762H66.4619L70.4294 24.1885H74.6154L73.2737 30.869C74.5298 29.8631 76.1108 29.3333 77.7299 29.3758C79.3388 29.3679 80.6208 29.787 81.576 30.6331Z" fill="#A1A1AA"/>
<path d="M93.3734 29.814C94.3833 29.4956 95.4397 29.3432 96.5 29.363L95.7472 33.1677C95.2453 33.1319 94.9236 33.1139 94.7819 33.1139C93.511 33.1139 92.4991 33.4225 91.7463 34.0397C90.9935 34.6569 90.4795 35.6165 90.2042 36.9186L88.8079 43.7873H84.6188L87.4783 29.5631H91.4519L91.1028 31.2534C91.7247 30.5935 92.5056 30.0985 93.3734 29.814V29.814Z" fill="#A1A1AA"/>
<path d="M25.1187 18.408C25.2103 17.6106 25.3905 16.8255 25.656 16.0667C26.6364 13.7612 28.4851 12.1814 30.6282 10.9331C34.4197 8.72619 38.5997 7.71082 42.9193 7.19119C48.9085 6.45056 54.8491 6.59391 60.6289 8.46637C62.0592 8.96415 63.419 9.63956 64.6753 10.4762C64.7039 10.4949 64.725 10.5226 64.7351 10.5548C64.7452 10.5871 64.7437 10.6217 64.7309 10.653C64.718 10.6842 64.6946 10.7101 64.6646 10.7264C64.6345 10.7426 64.5997 10.7481 64.566 10.742C50.4627 7.98855 37.4401 9.93567 25.8502 18.7813C25.787 18.8302 25.7117 18.8616 25.632 18.8722C25.5523 18.8829 25.4712 18.8725 25.397 18.8421C25.3228 18.8116 25.2582 18.7623 25.2098 18.6991C25.1614 18.636 25.131 18.5613 25.1217 18.4827C25.1186 18.4579 25.1176 18.433 25.1187 18.408V18.408Z" fill="#A1A1AA"/>
<path d="M32.4955 5.90693C32.7735 5.23527 33.1268 4.59621 33.5489 4.00162C34.9725 2.20979 36.973 1.31388 39.1465 0.743476C42.9895 -0.259949 46.8751 -0.131534 50.7636 0.444838C56.1488 1.24818 61.2728 2.83394 65.8292 5.83526C66.9449 6.61688 67.9539 7.53625 68.8314 8.57079C68.8536 8.59346 68.8667 8.62319 68.8685 8.65457C68.8702 8.68596 68.8605 8.71693 68.841 8.74186C68.8216 8.76679 68.7937 8.78403 68.7624 8.79045C68.7311 8.79687 68.6985 8.79204 68.6705 8.77685C57.1141 2.97729 45.3148 1.51695 33.0358 6.40566C32.9708 6.43238 32.8999 6.44204 32.83 6.43369C32.7601 6.42534 32.6935 6.39927 32.6369 6.35802C32.5803 6.31678 32.5356 6.26178 32.507 6.19842C32.4785 6.13505 32.4672 6.06548 32.4743 5.99653C32.4761 5.96569 32.4833 5.93539 32.4955 5.90693V5.90693Z" fill="#A1A1AA"/>
</svg>
