<svg width="205" height="36" viewBox="0 0 205 36" fill="none" xmlns="http://www.w3.org/2000/svg">
<g clip-path="url(#clip0_53_4687)">
<path fill-rule="evenodd" clip-rule="evenodd" d="M0.681641 15.6787C0.681641 20.7403 3.27228 25.2621 7.23124 27.9201L3.47537 31.4421C3.47537 32.6719 8.6849 34.1752 14.9995 34.1752C21.472 34.1752 26.5236 32.6719 26.5236 31.4421L23.078 28.2112C27.324 25.5674 30.1393 20.8186 30.1393 15.5423C30.1393 7.49655 23.4567 0.814453 15.4104 0.814453C7.36415 0.814453 0.681641 7.63291 0.681641 15.6787ZM25.6747 9.33608L19.6484 15.9364C19.3038 16.3137 18.8166 16.5287 18.3057 16.5287H13.7629C13.3225 16.5287 12.897 16.6885 12.5656 16.9785L6.14477 22.5968C6.0636 22.6677 5.97653 22.7277 5.8854 22.7766C8.09308 25.6588 11.5633 27.5428 15.4104 27.5428C22.0929 27.5428 27.4116 22.0881 27.4116 15.5423C27.4116 13.284 26.7786 11.1555 25.6747 9.33608ZM10.9327 6.35328C11.3261 6.15659 11.4856 5.67822 11.2889 5.28482C11.0922 4.89142 10.6138 4.73197 10.2204 4.92868C7.8731 6.10233 5.96977 8.00566 4.79611 10.353C4.59942 10.7464 4.75888 11.2247 5.15228 11.4214C5.54566 11.6181 6.02404 11.4587 6.22073 11.0653C7.24026 9.02621 8.89366 7.37281 10.9327 6.35328Z" fill="#A1A1AA"/>
<path d="M49.0391 35.9996H53.5643V28.1613C53.5643 27.3531 53.4836 25.2925 53.4432 23.9593H53.4836C54.332 26.5451 56.918 28.3229 60.8774 28.3229C66.6149 28.3229 70.2512 24.1209 70.2512 17.6562C70.2512 11.636 66.6552 7.7168 60.9583 7.7168C56.9987 7.7168 54.332 9.6562 53.524 12.6865H53.4836L53.5643 8.04003H49.0391V35.9996ZM59.9887 24.6056C56.1098 24.6056 53.5643 22.4238 53.5643 19.03V17.9794C53.6452 13.9794 56.1502 11.434 59.9078 11.434C63.5038 11.434 65.726 13.939 65.726 17.7774C65.726 21.9391 63.4634 24.6056 59.9887 24.6056Z" fill="#A1A1AA"/>
<path d="M73.7666 27.9996H78.2919V19.2724C78.2919 14.5047 80.4333 11.5956 83.8677 11.5956C86.5344 11.5956 87.8273 13.1713 87.8273 16.5249C87.8273 17.4542 87.7464 18.4644 87.6657 19.232H91.7868C91.8677 18.3835 91.9888 16.7673 91.9888 15.5148C91.9888 10.5451 89.605 7.7168 85.2819 7.7168C81.1606 7.7168 79.1001 10.1815 78.1708 13.7774H78.1302L78.2919 8.04003H73.7666V27.9996Z" fill="#A1A1AA"/>
<path d="M105.276 28.3229C111.66 28.3229 115.741 24.4036 115.741 18.0602C115.741 11.6764 111.66 7.7168 105.276 7.7168C98.933 7.7168 94.8521 11.6764 94.8521 18.0602C94.8521 24.4036 98.933 28.3229 105.276 28.3229ZM105.276 24.6056C101.6 24.6056 99.3773 22.1007 99.3773 18.0602C99.3773 13.9794 101.6 11.434 105.276 11.434C108.953 11.434 111.216 13.9794 111.216 18.0602C111.216 22.1007 108.953 24.6056 105.276 24.6056Z" fill="#A1A1AA"/>
<path d="M119.323 35.9996H123.849V28.1613C123.849 27.3531 123.768 25.2925 123.727 23.9593H123.768C124.616 26.5451 127.202 28.3229 131.162 28.3229C136.899 28.3229 140.535 24.1209 140.535 17.6562C140.535 11.636 136.939 7.7168 131.242 7.7168C127.283 7.7168 124.616 9.6562 123.808 12.6865H123.768L123.849 8.04003H119.323V35.9996ZM130.273 24.6056C126.394 24.6056 123.849 22.4238 123.849 19.03V17.9794C123.929 13.9794 126.434 11.434 130.192 11.434C133.788 11.434 136.01 13.939 136.01 17.7774C136.01 21.9391 133.747 24.6056 130.273 24.6056Z" fill="#A1A1AA"/>
<path d="M144.172 28H148.697V18.5455C148.697 14.0606 151.202 11.596 155.202 11.596C158.798 11.596 160.576 13.3737 160.576 16.5253V28H165.101V15.5151C165.101 10.5859 161.99 7.71716 156.94 7.71716C152.253 7.71716 149.667 9.77778 148.616 13.4141H148.576C148.616 12.3232 148.697 10.0202 148.697 9.05051V0H144.172V28Z" fill="#A1A1AA"/>
<path d="M187.927 17.2926C187.927 11.0703 184.331 7.7168 178.674 7.7168C172.371 7.7168 168.411 11.7168 168.411 18.1815C168.411 24.444 172.371 28.3229 178.674 28.3229C184.129 28.3229 187.765 25.6158 187.927 21.1713H183.845C183.643 23.5147 181.664 24.8076 178.755 24.8076C175.361 24.8076 173.219 22.7471 172.977 18.9087H187.927V17.2926ZM183.845 16.1613H173.098C173.623 12.8481 175.603 11.232 178.714 11.232C181.987 11.232 183.845 12.8885 183.845 15.8784V16.1613Z" fill="#A1A1AA"/>
<path d="M200.347 28.2428C202.005 28.2428 203.378 27.9601 203.983 27.7581V24.1621C203.418 24.3238 202.125 24.5258 200.994 24.5258C198.247 24.5258 197.278 23.2328 197.278 20.647V11.7176H204.145V8.04088H197.278V3.51562H193.52L193.318 6.50553C193.196 7.63684 192.914 8.04088 192.145 8.04088H189.6V11.7176H192.752V20.8894C192.752 25.2934 194.892 28.2428 200.347 28.2428Z" fill="#A1A1AA"/>
</g>
<defs>
<clipPath id="clip0_53_4687">
<rect width="203.636" height="36" fill="white" transform="translate(0.681641)"/>
</clipPath>
</defs>
</svg>
