<svg width="43" height="36" viewBox="0 0 43 36" fill="none" xmlns="http://www.w3.org/2000/svg">
<path d="M1.62395 30.1426H6.36234C7.45471 30.1426 7.68726 30.6077 7.68726 31.4191C7.68726 32.865 6.88461 33.5231 5.84886 33.5231H5.4151L7.07757 35.8755H4.21057L3.02199 33.8848L2.50906 35.8766H0.0593262L1.62395 30.1426ZM3.31116 32.9365H4.41068C4.51629 32.9425 4.622 32.9264 4.72104 32.8893C4.82008 32.8521 4.91028 32.7947 4.98588 32.7207C5.06147 32.6468 5.1208 32.5578 5.16006 32.4596C5.19932 32.3614 5.21765 32.256 5.21389 32.1503C5.21389 31.8754 5.02092 31.7484 4.68392 31.7484H3.61628L3.31116 32.9365Z" fill="#A1A1AA"/>
<path d="M10.3141 30.1426H14.6115V35.8766H12.1376V35.0415H10.1145L9.61697 35.8766H6.86816L10.3141 30.1426ZM12.1376 31.5967H12.1211L10.8523 33.661H12.1376V31.5967Z" fill="#A1A1AA"/>
<path d="M16.1784 30.1426H18.996L19.5105 33.4664H19.5259L20.394 30.1426H22.8679L21.3286 35.876H18.5952L17.9206 32.8914H17.9041L17.1092 35.8766H14.6353L16.1784 30.1426Z" fill="#A1A1AA"/>
<path d="M23.6622 30.1426H27.9981C28.8739 30.1426 29.7024 30.4466 29.7024 31.7721C29.6528 32.6399 29.4463 33.4915 29.0927 34.2856C28.9277 34.7567 28.6186 35.1638 28.2092 35.4493C27.7997 35.7348 27.3108 35.8841 26.8117 35.876H22.0964L23.6622 30.1426ZM24.9816 34.3493H25.8969C26.1485 34.3375 26.3879 34.2379 26.5738 34.0681C26.7596 33.8982 26.8802 33.6686 26.9145 33.4192C26.9973 33.147 27.0515 32.8669 27.0762 32.5835C27.0762 32.1987 26.9063 32.0376 26.4165 32.0376H25.6138L24.9816 34.3493Z" fill="#A1A1AA"/>
<path d="M30.8273 34.5671L29.6299 30.1426H32.3122L32.6261 32.6715H32.6497L34.1209 30.1426H36.9631L32.796 35.8766H29.8542L30.8273 34.5671Z" fill="#A1A1AA"/>
<path d="M42.7851 30.8319C42.4492 30.3371 41.5679 30.0996 40.0913 30.0996C37.9401 30.0996 36.6751 30.6752 36.1094 31.9138C36.0116 32.0783 35.9536 32.2634 35.9398 32.4542C35.9261 32.6451 35.957 32.8365 36.0302 33.0133C36.1309 33.167 36.2662 33.2948 36.4253 33.3867C36.5843 33.4785 36.7627 33.5318 36.9461 33.5422L39.1919 33.9034C39.2236 33.9053 39.2545 33.9137 39.2829 33.928C39.3112 33.9422 39.3364 33.9621 39.3568 33.9864C39.3646 34.0112 39.3673 34.0372 39.3647 34.0631C39.362 34.0889 39.3541 34.1139 39.3414 34.1365C39.26 34.3141 39.0775 34.518 38.3859 34.518C38.1764 34.5346 37.9659 34.5018 37.7713 34.4224C37.7218 34.3861 37.6745 34.3311 37.7515 34.1475L37.8026 34.0238H35.0687L35.045 34.0788C34.9362 34.2588 34.8757 34.4638 34.8692 34.674C34.8628 34.8842 34.9106 35.0926 35.0082 35.2789C35.4216 35.921 36.6701 36.0024 37.7114 36.0024C40.0957 36.0024 41.4937 35.3768 42.1095 34.0326C42.2032 33.8727 42.258 33.693 42.2694 33.508C42.2807 33.323 42.2484 33.1379 42.1749 32.9677C42.0448 32.7833 41.874 32.6313 41.6757 32.5237C41.4774 32.416 41.2569 32.3556 41.0314 32.347L38.6784 31.971C38.6108 31.9611 38.5794 31.943 38.5723 31.9298C38.5652 31.9166 38.5673 31.8814 38.5954 31.8198C38.6965 31.5999 39.0132 31.49 39.536 31.49C39.7312 31.4792 39.9262 31.5148 40.105 31.5939C40.1968 31.6362 40.2788 31.7071 40.1886 31.9034L40.1303 32.0304H42.7873L42.8099 31.9754C42.9021 31.7983 42.9482 31.6008 42.944 31.4011C42.9397 31.2014 42.8853 31.0061 42.7857 30.833" fill="#A1A1AA"/>
<path d="M31.6364 22.146C31.6276 21.964 31.6133 21.7997 31.5985 21.6589C31.1585 22.33 30.6813 22.9758 30.1691 23.5935L29.1834 22.604L26.726 20.1592L26.544 19.9783C27.7495 18.9651 28.8307 17.8126 29.765 16.545C29.6639 16.3521 29.555 16.1525 29.4423 15.9502C29.2829 16.202 29.1251 16.4554 28.9591 16.7039C28.1999 17.8161 27.3829 18.8964 26.5209 19.9558L25.7353 19.1745C25.6292 19.2295 25.5209 19.2724 25.4142 19.3208L26.284 20.1954C25.9272 20.4841 25.5632 20.7584 25.2009 21.0366C25.2466 21.0954 25.2916 21.1515 25.3367 21.2081L25.3659 21.246C25.6902 20.9134 26.0069 20.5731 26.3043 20.2169L26.4857 20.3994L28.9311 22.8568L29.9206 23.8415C29.612 24.098 29.2972 24.345 28.9761 24.5825C28.9827 24.5858 28.9899 24.5913 28.9965 24.5952C29.0559 24.626 29.1064 24.6502 29.1653 24.676C29.4346 24.4149 29.6952 24.1444 29.9388 23.8602L30.1587 24.0801L30.7733 24.693L30.8668 24.7865C30.9577 24.7141 31.0399 24.6314 31.112 24.5402L31.0196 24.4479L30.4083 23.8327L30.1884 23.6128C30.7065 23.1597 31.1908 22.6695 31.6375 22.146" fill="#ADAFB2"/>
<path d="M14.2493 3.32387C14.3158 3.28209 14.385 3.24416 14.4521 3.20403C14.727 3.0391 15.0052 2.88516 15.2905 2.74223C15.7621 2.51139 16.2463 2.30711 16.7408 2.13034C16.5577 2.05448 16.3834 1.99235 16.2141 1.93848C15.848 2.08416 15.4857 2.24359 15.1305 2.42117C14.6411 2.67028 14.1665 2.94726 13.7088 3.25076C13.6885 3.39699 13.6737 3.55038 13.6665 3.71091C13.6791 3.70266 13.6912 3.69331 13.7039 3.68452C13.8842 3.56192 14.0634 3.43877 14.2498 3.32442" fill="#ADAFB2"/>
<path d="M13.8062 5.46863C13.8188 5.54615 13.8265 5.61927 13.8413 5.69788C14.1866 5.4373 14.5379 5.18825 14.9029 4.96065C15.6147 4.48899 16.3644 4.07727 17.1443 3.72974C17.6226 3.51698 18.1124 3.33556 18.6067 3.16898C18.3824 3.0189 18.1592 2.87431 17.9409 2.74512C17.5869 2.89355 17.2378 3.05188 16.9002 3.2344C16.1261 3.65175 15.3891 4.13455 14.6973 4.67753C14.3905 4.93188 14.0935 5.19613 13.8062 5.47028" fill="#ADAFB2"/>
<path d="M35.6498 13.0141C35.5381 12.2875 35.3703 11.5707 35.1479 10.8701C34.9244 10.1611 34.645 9.47099 34.3123 8.80625C33.974 8.12961 33.5826 7.48087 33.1418 6.86614C32.2348 5.60519 31.1293 4.49958 29.8685 3.59231C29.2528 3.15037 28.603 2.75808 27.9251 2.41912C27.3204 2.14424 26.4958 1.81164 25.8679 1.58569C25.1659 1.36388 24.4478 1.19644 23.72 1.08485C23.0046 0.974519 22.2817 0.91938 21.5578 0.919926H21.5028C20.9169 0.92335 20.3318 0.962824 19.7507 1.03812C19.9129 1.13708 20.0756 1.23604 20.24 1.34324C20.6617 1.30476 21.0839 1.27892 21.5045 1.27892H21.5594C22.2651 1.27957 22.9696 1.33471 23.6667 1.44385C24.1876 1.52722 24.7033 1.63992 25.2115 1.7814C24.1328 1.60894 23.0363 1.57623 21.9492 1.68409C21.6166 1.71928 21.2868 1.77261 20.9597 1.83363C21.2197 2.02 21.488 2.22561 21.7585 2.43837C21.8464 2.42737 21.9338 2.40813 22.0223 2.39933C23.3454 2.26089 24.6817 2.32055 25.9872 2.57636C26.3369 2.96852 26.6953 3.35482 27.0626 3.73525C26.0167 3.8276 24.9886 4.06327 24.007 4.43565C24.1902 4.61487 24.3711 4.79684 24.5496 4.98156C25.5107 4.61673 26.5132 4.37188 27.5342 4.25258H27.559C28.349 5.03269 29.1599 5.79191 30.0252 6.4956C29.7386 6.76169 29.4522 7.02777 29.1659 7.29385C29.2528 7.39391 29.3397 7.49287 29.4183 7.59897C29.6932 7.3032 29.968 7.00853 30.2429 6.71221C30.9026 7.52146 31.6091 8.28123 32.337 9.0212C32.3315 9.06573 32.3287 9.11136 32.3221 9.15535C32.0894 10.5187 31.6602 11.8411 31.0478 13.0812C30.9417 13.3099 30.8279 13.5347 30.7113 13.7601C30.9367 14.2329 31.1493 14.7083 31.349 15.1862C32.1 15.918 32.8543 16.6469 33.6212 17.3622C33.4008 18.0781 33.1349 18.7792 32.8252 19.4612C32.801 19.5123 32.7702 19.5618 32.7476 19.6129C32.8026 19.8823 32.8532 20.15 32.8922 20.4117C33.0368 20.1792 33.1852 19.9499 33.3177 19.7102C33.6422 19.111 33.921 18.4882 34.1517 17.8471C34.4431 18.1121 34.7273 18.3836 35.0242 18.6431C34.9571 18.9081 34.8895 19.1731 34.8076 19.4315C34.5896 20.1224 34.317 20.7948 33.9923 21.4425C33.8488 21.73 33.691 22.0104 33.5277 22.2869C33.4865 22.3557 33.4475 22.426 33.4051 22.4942C33.2831 22.6921 33.1528 22.884 33.0203 23.0753C33.0099 23.0901 32.9989 23.1044 32.9884 23.1187C32.9681 23.287 32.9428 23.4519 32.9104 23.6135L32.8873 23.7064C32.8719 23.7861 32.8521 23.8582 32.8323 23.934C32.934 23.8026 33.0429 23.6767 33.1396 23.542C34.4479 21.7179 35.3072 19.6107 35.6476 17.3919C35.7582 16.6676 35.8133 15.9359 35.8126 15.2033C35.814 14.4702 35.7589 13.7381 35.6476 13.0136M34.8054 10.9756C34.8378 11.0762 34.8604 11.1818 34.8906 11.284C34.8681 11.2582 34.8455 11.2329 34.8241 11.206C34.7993 11.0625 34.7653 10.9206 34.7345 10.7777C34.7565 10.8442 34.785 10.9091 34.8054 10.9756M32.5514 6.69736C33.1287 7.62303 33.5704 8.62665 33.8631 9.67762C33.9109 9.85849 33.9412 10.0443 33.9813 10.2274C33.6212 9.83485 33.2496 9.45332 32.8763 9.07288C32.9234 8.38642 32.8537 7.69694 32.6701 7.03382C32.6322 6.91122 32.5833 6.79247 32.5343 6.67317L32.5541 6.69846M31.3881 5.35485L31.3936 5.36089C31.3864 5.36969 31.3776 5.37849 31.3699 5.38728C31.3772 5.37719 31.3833 5.36631 31.3881 5.35485M27.498 3.69622C27.1428 3.34877 26.7833 3.00407 26.4182 2.66982C26.6227 2.71654 26.83 2.75393 27.0323 2.8111C28.0373 3.10489 28.9987 3.53122 29.8911 4.07885C29.8284 4.05301 29.7685 4.02388 29.7053 3.99969C28.9944 3.76765 28.2478 3.66469 27.5007 3.69567M30.0566 6.46482C29.4172 5.67811 28.7305 4.93923 28.0224 4.21904C28.9307 4.16009 29.8396 4.32253 30.6712 4.69239C30.9103 4.9002 31.1451 5.11295 31.3688 5.33561C31.3205 5.36859 31.2259 5.44556 31.1 5.55551C30.7423 5.84615 30.3941 6.14834 30.0555 6.46207M30.2715 6.67757C30.6646 6.25261 31.0461 5.8172 31.3991 5.36144C31.6102 5.5731 31.8108 5.79686 32.0082 6.02116C32.3447 6.82898 32.4732 7.7083 32.382 8.57865C31.7042 7.91893 31.0076 7.27571 30.2715 6.67537M33.6916 17.1538C32.8486 16.2515 31.9937 15.3603 31.1269 14.4803C31.3276 14.1219 31.5206 13.7596 31.6976 13.3885C32.2858 12.1679 32.6702 10.8592 32.8356 9.51434C33.2421 9.912 33.6577 10.3007 34.0825 10.6804C34.3236 11.9887 34.3653 13.3261 34.2062 14.6469C34.1083 15.496 33.9361 16.3348 33.6916 17.1538M35.2974 17.3385C35.2309 17.7717 35.1374 18.1995 35.0313 18.6228C34.7614 18.3133 34.4816 18.018 34.2023 17.7146C34.5506 16.7494 34.7907 15.7486 34.9181 14.7305C35.0481 13.6013 35.0245 12.4596 34.8477 11.3368C34.873 11.3577 34.8983 11.3791 34.9225 11.4011C35.2821 12.6367 35.4627 13.9175 35.4585 15.2044C35.4588 15.919 35.4045 16.6327 35.2963 17.3391" fill="#ADAFB2"/>
<path d="M10.5786 21.2084C10.7516 19.8152 11.1388 18.457 11.7265 17.182C11.8732 16.8472 12.0299 16.5167 12.1932 16.1924C12.5962 16.5866 13.0014 16.9769 13.406 17.3689L13.4747 17.0011C13.113 16.6289 12.7534 16.2545 12.3906 15.8834L12.368 15.862C12.9319 14.7931 13.5634 13.7613 14.2587 12.7729L14.3191 12.443C14.2642 12.3446 14.2169 12.2506 14.1646 12.1538C13.2858 13.1393 12.5119 14.2137 11.8556 15.3595C11.0101 14.5305 10.1529 13.7131 9.28387 12.9076C9.49526 12.1954 9.75235 11.4976 10.0535 10.8185C10.4007 10.0387 10.8118 9.28899 11.2828 8.5771C11.539 8.16478 11.826 7.7717 12.1234 7.38467C12.1069 7.32969 12.0855 7.27087 12.0684 7.21644C11.0657 8.203 10.2184 9.33593 9.55545 10.5766C9.24218 11.1698 8.97423 11.7858 8.7539 12.4194C8.54224 12.2281 8.33718 12.0307 8.12222 11.8432C8.68375 9.45384 9.87077 7.25683 11.5615 5.47755L11.5813 5.49734L11.6995 5.61664C11.6693 5.44621 11.6313 5.27358 11.6072 5.10536C11.6 5.04763 11.5967 4.99541 11.5901 4.94043C11.5417 4.98716 11.489 5.03004 11.4411 5.07732C11.4345 5.08392 11.4268 5.08832 11.4202 5.09546C10.0728 6.41319 8.99881 7.98394 8.25975 9.71763C7.52069 11.4513 7.13113 13.3139 7.11341 15.1984C7.10538 17.0957 7.46863 18.9762 8.1827 20.734C8.27616 20.9539 8.36742 21.1787 8.46692 21.3838L8.62525 21.7136L8.79678 22.0204C9.02713 22.4272 9.26518 22.8264 9.51147 23.2244C10.0266 24.0292 10.6286 24.7752 11.3064 25.4487C11.4642 25.595 11.6396 25.7577 11.8205 25.9204L11.9733 25.0958C11.9712 25.0933 11.9688 25.0911 11.9662 25.0892L11.9766 25.0804L12.1366 24.2178L11.9788 24.3888L11.683 24.7186L11.6451 24.7637C11.3581 24.4657 11.0777 24.1551 10.8133 23.8291C10.5969 23.1391 10.5064 22.4159 10.5461 21.6938C11.1138 22.2498 11.7003 22.7868 12.3054 23.3046L12.3367 23.1397C11.7712 22.4829 11.1848 21.8465 10.5775 21.2304C10.5775 21.2227 10.5775 21.2145 10.5775 21.2057M8.00457 15.619C7.9402 16.2728 7.92494 16.9305 7.95894 17.5866C7.81398 16.8019 7.73655 16.0062 7.72749 15.2083C7.72004 14.0867 7.84927 12.9683 8.11233 11.8779C8.30749 12.1011 8.51145 12.3149 8.71102 12.5343C8.35832 13.5321 8.12129 14.5671 8.00457 15.619ZM10.0986 22.8527C9.94743 22.6163 9.80559 22.3734 9.6588 22.132C9.45272 21.6677 9.2777 21.1902 9.13488 20.7026C9.07991 20.5036 9.04252 20.3002 8.99579 20.0979C9.3284 20.4629 9.67145 20.817 10.0172 21.1694C9.99537 21.8009 10.0665 22.4322 10.2284 23.043C10.186 22.9786 10.1387 22.9165 10.097 22.8516M10.0563 20.7301C9.67695 20.3636 9.28918 20.0039 8.89299 19.6509C8.63768 18.3476 8.57838 17.0135 8.71706 15.6927C8.80544 14.8131 8.97381 13.9435 9.2201 13.0945C10.0286 13.9635 10.8478 14.8215 11.6775 15.6685C11.4609 16.0687 11.2537 16.4744 11.0667 16.8917C10.5219 18.1077 10.1805 19.405 10.0563 20.7318" fill="#ADAFB2"/>
<path d="M14.6967 8.61952L14.9749 8.8944L15.0524 8.47823L14.4246 7.84766C14.5092 8.0989 14.5972 8.35344 14.6967 8.61732" fill="#ADAFB2"/>
<path d="M34.2209 25.1495C36.3927 22.2908 37.5596 18.7949 37.5403 15.2049C37.5592 11.615 36.3925 8.11924 34.2214 5.26022C34.2158 5.24951 34.2139 5.23723 34.2159 5.2253C34.218 5.21338 34.2239 5.20246 34.2328 5.19426C34.2417 5.18605 34.2531 5.18101 34.2651 5.17991C34.2772 5.17882 34.2893 5.18173 34.2995 5.1882L34.3072 5.1948C35.703 6.42909 36.7972 7.96695 37.5057 9.6902C38.2362 11.4371 38.6137 13.3114 38.6162 15.2049C38.6065 16.1504 38.5146 17.0933 38.3413 18.0229C38.1554 18.9473 37.8773 19.8506 37.5112 20.7195C36.8025 22.4432 35.7068 23.9808 34.3088 25.2133L34.3006 25.2209C34.2897 25.2298 34.2759 25.2342 34.2618 25.2332C34.2478 25.2322 34.2348 25.2258 34.2253 25.2154C34.2179 25.2058 34.2139 25.194 34.2139 25.1819C34.2139 25.1698 34.2179 25.158 34.2253 25.1484" fill="#EA4817"/>
<path d="M8.69159 25.2137C7.29311 23.9818 6.19746 22.4441 5.48979 20.72C5.12339 19.8522 4.84527 18.9497 4.65965 18.0262C4.48618 17.0962 4.3942 16.1529 4.38477 15.207C4.38667 13.3138 4.76354 11.4397 5.49363 9.69288C6.20239 7.96947 7.29699 6.43158 8.69324 5.19749L8.70094 5.19089C8.71121 5.18451 8.72331 5.1817 8.73534 5.18288C8.74738 5.18407 8.75869 5.18919 8.76752 5.19746C8.77635 5.20573 8.7822 5.21667 8.78418 5.2286C8.78616 5.24054 8.78415 5.25279 8.77846 5.26346C6.60678 8.12095 5.43984 11.6158 5.459 15.2048C5.43896 18.7949 6.60574 22.291 8.77791 25.1494C8.7861 25.1608 8.78964 25.1749 8.7878 25.1888C8.78596 25.2027 8.77888 25.2153 8.76801 25.2242C8.75835 25.2317 8.74645 25.2358 8.7342 25.2358C8.72195 25.2358 8.71005 25.2317 8.70039 25.2242L8.69159 25.2137Z" fill="#EA4817"/>
<path d="M28.7397 25.0703C28.1758 24.7574 27.6478 24.3837 27.1652 23.9559C26.2006 23.0958 25.328 22.1377 24.5616 21.0971C24.147 20.5474 23.7578 19.9789 23.3851 19.4011C24.6259 19.1777 25.7949 18.6594 26.7936 17.8898C28.402 16.5579 29.4916 14.7034 29.8722 12.6501C30.2483 10.6247 29.8299 8.65274 28.5039 7.35695C27.5885 6.46524 26.3164 5.89844 22.6165 5.89844H16.0787L12.375 25.8801H17.2635L18.2404 20.6084C18.6896 21.0378 24.0129 26.0648 26.6204 26.0648H29.7645C29.7645 26.0648 30.5116 25.6437 30.6177 25.57C29.9577 25.5776 29.3083 25.4044 28.7397 25.0692M19.2382 15.0283L20.0903 10.4147H23.6638C24.9733 10.4147 25.7221 10.9139 25.7221 11.9733C25.7371 12.3838 25.6663 12.7929 25.5142 13.1745C25.3621 13.5561 25.132 13.9017 24.8386 14.1892C24.5453 14.4768 24.1951 14.6999 23.8106 14.8444C23.4261 14.9889 23.0156 15.0515 22.6055 15.0283H19.2382Z" fill="#A1A1AA"/>
<path d="M32.4656 21.3477C32.3194 19.9119 32.001 18.4989 31.5172 17.1393C31.0372 15.7415 30.4532 14.3816 29.7701 13.071C29.6455 13.581 29.4778 14.0794 29.2687 14.5609C29.8287 15.487 30.341 16.4412 30.8036 17.4196C31.3957 18.6671 31.8312 19.9829 32.1005 21.3372C32.2451 22.3411 32.3792 24.7358 30.8245 25.4511C30.7193 25.4943 30.6115 25.531 30.5018 25.561C30.4368 25.5828 30.3708 25.6011 30.3039 25.616L30.2632 25.6243C29.9235 25.6777 29.5776 25.6795 29.2374 25.6298C28.5428 25.5164 27.8697 25.2976 27.2412 24.981C25.9896 24.3301 24.8247 23.5247 23.7738 22.5835C21.6881 20.6886 19.8302 18.5571 18.2377 16.2321C17.0609 14.5703 16.0235 12.8141 15.136 10.9814V10.9814C14.8061 10.2903 14.4944 9.59048 14.2195 8.87799C13.7093 7.59876 13.3585 6.26158 13.175 4.89662C13.0899 4.24662 13.102 3.58759 13.2107 2.94112C13.2842 2.37335 13.5751 1.85622 14.0222 1.49855C14.5067 1.20695 15.085 1.11323 15.6368 1.23687C16.2727 1.35646 16.8874 1.56951 17.4609 1.86909C18.669 2.49865 19.7953 3.27411 20.8145 4.17809C21.4505 4.71795 22.0525 5.2996 22.6402 5.89829C23.4682 5.89829 24.1697 5.92908 24.7771 5.98405C23.8277 4.9484 22.8072 3.98013 21.7232 3.08626C20.5873 2.1434 19.3397 1.3439 18.0085 0.705797C17.3099 0.374373 16.5658 0.149056 15.8006 0.0372875C14.9438 -0.107501 14.0642 0.0847723 13.346 0.573854C12.6748 1.11402 12.2397 1.89384 12.1326 2.74871C12.0213 3.50515 12.0239 4.274 12.1403 5.02967C12.3693 6.47269 12.7756 7.88194 13.3498 9.22544C13.801 10.2941 14.3122 11.3365 14.8809 12.3475C15.7101 13.8435 16.6368 15.2834 17.655 16.6577C19.3605 18.9554 21.3519 21.0266 23.5809 22.821C23.77 22.9717 23.9657 23.1163 24.1581 23.2608L24.0685 23.2059C26.6304 25.0822 28.0229 25.7315 28.8421 25.9547L28.8525 25.9574C28.9201 25.9756 28.9834 25.991 29.0433 26.0036L29.0757 26.0102C29.1307 26.0212 29.1813 26.0305 29.2297 26.0388L29.2692 26.0443C29.3138 26.0503 29.3561 26.0553 29.3962 26.0591L29.4358 26.0619C29.4738 26.0646 29.5095 26.0668 29.5458 26.0685H29.5793C29.6964 26.0685 29.7932 26.0685 29.8745 26.0685C31.7305 26.0685 32.2055 24.4274 32.3655 23.5912C32.371 23.5643 32.3814 23.5363 32.3864 23.5121C32.5178 22.7996 32.5452 22.0719 32.4678 21.3515" fill="#EA4817"/>
</svg>
