<svg width="90" height="27" viewBox="0 0 90 27" fill="none" xmlns="http://www.w3.org/2000/svg">
<path fill-rule="evenodd" clip-rule="evenodd" d="M48.5536 6.58206H42.2924L40.3703 10.1479L38.5574 6.58206H32.2145L36.9655 13.3871L31.8026 20.8454H38.1194L40.2056 16.7624L42.2375 20.8454H48.6079L43.6379 13.3599L48.5536 6.58206ZM23.3729 10.2841C23.3729 9.57634 24.0044 9.27692 24.9929 9.27692C25.4316 9.27692 25.8441 9.3858 26.1455 9.6301C26.4482 9.87644 26.6404 10.2024 26.6954 10.6651H31.8857C31.5562 6.88155 27.8761 6.17315 24.7458 6.17315C21.7522 6.17315 17.9354 7.23542 17.9354 10.8836C17.9354 16.4086 26.7503 14.5848 26.7503 16.872C26.7503 17.8805 25.816 18.1513 24.938 18.1513C24.3889 18.1513 23.8946 17.988 23.537 17.7158C23.1525 17.4164 22.9329 16.9802 22.9329 16.4086H17.4961C17.7981 20.2466 21.4227 21.2544 24.7177 21.2544C29.9904 21.2544 32.4623 19.2408 32.4623 16.2725C32.4623 10.9373 23.3729 12.2711 23.3729 10.2841ZM72.7897 5.2368V5.22863C72.7897 5.07138 72.6736 4.98493 72.4778 4.98493H72.0854V5.4805H72.4778C72.6736 5.4805 72.7897 5.3852 72.7897 5.2368ZM72.7295 5.69053L73.1544 6.28052H72.7961L72.413 5.7402H72.4048H72.0835V6.28052H71.7842V4.71673H72.4878C72.6958 4.71673 72.8578 4.77933 72.9663 4.88617C73.0501 4.96443 73.0961 5.07603 73.0961 5.21213V5.2203C73.0961 5.47209 72.9457 5.62928 72.7295 5.69053ZM67.1932 6.17654C65.1111 6.17654 64.0279 7.07208 62.7923 8.78694C62.1051 7.26194 60.6642 6.17518 58.2829 6.17518C56.2235 6.17518 54.9247 7.61716 54.2108 8.7046V6.58212H48.9649V20.8454H54.6762V13.7961C54.6762 12.0813 54.7167 10.5998 56.2853 10.6393C57.8072 10.6794 57.9314 11.4817 57.9314 13.5784V20.8454H63.6435V13.7961C63.6435 12.0813 63.6318 10.6468 65.2367 10.642C66.747 10.6386 66.8849 11.4817 66.8849 13.5784V20.8454H72.5956V12.4079C72.5956 8.51474 70.8142 6.17518 67.1932 6.17654ZM73.7132 5.53347C73.7132 4.79852 73.1339 4.22214 72.3945 4.22214C71.6497 4.22214 71.0669 4.80193 71.0669 5.54231V5.55048C71.0669 6.28542 71.6463 6.86181 72.3863 6.86181C73.1304 6.86181 73.7132 6.2827 73.7132 5.54231V5.53347ZM73.9223 5.53347V5.54232C73.9223 6.37933 73.2338 7.0612 72.3867 7.0612C71.5437 7.0612 70.8586 6.38342 70.8586 5.55048V5.54232C70.8586 4.70462 71.5478 4.02344 72.3949 4.02344C73.2372 4.02344 73.9223 4.70054 73.9223 5.53347Z" fill="#A1A1AA"/>
<mask id="mask0_4_1940" style="mask-type:luminance" maskUnits="userSpaceOnUse" x="83" y="0" width="7" height="27">
<path fill-rule="evenodd" clip-rule="evenodd" d="M83.5605 0.693359H89.652V26.5546H83.5605V0.693359Z" fill="white"/>
</mask>
<g mask="url(#mask0_4_1940)">
<path fill-rule="evenodd" clip-rule="evenodd" d="M85.8411 1.23417C85.4552 0.667986 84.6826 0.522493 84.1167 0.911616C83.5521 1.29868 83.4077 2.07555 83.7957 2.64174C86.0047 5.87893 87.1728 9.67133 87.1728 13.6113C87.1728 17.5615 85.9978 21.3635 83.7793 24.6042C83.3906 25.171 83.5336 25.9452 84.0995 26.3336C84.662 26.7268 85.436 26.582 85.824 26.0145C88.3279 22.3559 89.6521 18.0673 89.6521 13.6113C89.6521 9.1676 88.3348 4.88725 85.8411 1.23417Z" fill="#A1A1AA"/>
</g>
<path fill-rule="evenodd" clip-rule="evenodd" d="M8.19801 13.6821C8.19801 10.8942 9.04416 8.25105 10.6461 6.03696C11.0451 5.48465 10.9449 4.6991 10.4179 4.2776C9.89228 3.86095 9.14176 3.96684 8.7421 4.51984C6.82228 7.17203 5.80664 10.3405 5.80664 13.6821C5.80664 16.9939 6.80513 20.1409 8.69594 22.7807C9.0923 23.3337 9.84216 23.4465 10.3704 23.0305C10.898 22.6139 11.0055 21.8269 10.6078 21.2739C9.03228 19.0709 8.19801 16.4457 8.19801 13.6821Z" fill="#A1A1AA"/>
<path fill-rule="evenodd" clip-rule="evenodd" d="M13.4975 13.6087C13.4975 11.9548 14.0551 10.3937 15.1112 9.09509C15.5544 8.54933 15.4529 7.75909 14.8875 7.33246C14.3184 6.90375 13.4997 6.99933 13.0551 7.54786C11.6356 9.29317 10.8867 11.3875 10.8867 13.6087C10.8867 15.845 11.6874 18.0329 13.14 19.7713C13.5918 20.3122 14.4148 20.3988 14.9752 19.9645C15.5357 19.5296 15.6263 18.7393 15.1724 18.197C14.0767 16.8846 13.4975 15.2972 13.4975 13.6087Z" fill="#A1A1AA"/>
<path fill-rule="evenodd" clip-rule="evenodd" d="M75.5175 7.33246C74.9491 7.75909 74.8469 8.54933 75.293 9.09509C76.3492 10.3937 76.9069 11.9548 76.9069 13.6087C76.9069 15.2972 76.3269 16.8846 75.2304 18.197C74.7764 18.7393 74.8685 19.5296 75.4283 19.9645C75.9909 20.3988 76.8126 20.3122 77.2645 19.7713C78.7164 18.0329 79.5165 15.8443 79.5165 13.6087C79.5165 11.3875 78.7675 9.29248 77.3501 7.54786C76.904 6.99933 76.0837 6.90375 75.5175 7.33246Z" fill="#A1A1AA"/>
<path fill-rule="evenodd" clip-rule="evenodd" d="M3.20706 13.387C3.20706 9.44989 4.37493 5.65822 6.58677 2.42419C6.97356 1.85695 6.82911 1.08188 6.26229 0.695036C5.6982 0.305444 4.92464 0.451541 4.53718 1.01672C2.03987 4.66847 0.720703 8.94506 0.720703 13.387C0.720703 17.8412 2.04671 22.1274 4.55566 25.784C4.94312 26.3498 5.71737 26.4939 6.28214 26.1029C6.8476 25.714 6.99067 24.941 6.60252 24.3737C4.37904 21.1349 3.20706 17.3343 3.20706 13.387Z" fill="#A1A1AA"/>
<path fill-rule="evenodd" clip-rule="evenodd" d="M81.6648 4.52047C81.2658 3.9668 80.5154 3.8609 79.9892 4.27755C79.463 4.69972 79.3595 5.48525 79.7584 6.03754C81.3621 8.25155 82.2074 10.894 82.2074 13.6824C82.2074 16.4459 81.3766 19.071 79.7986 21.274C79.4017 21.8263 79.5072 22.6139 80.0354 23.0305C80.5636 23.4465 81.3133 23.3337 81.7109 22.7807C83.6008 20.1403 84.5991 16.9934 84.5991 13.6824C84.5991 10.341 83.5856 7.17257 81.6648 4.52047Z" fill="#A1A1AA"/>
</svg>
