<svg width="181" height="36" viewBox="0 0 181 36" fill="none" xmlns="http://www.w3.org/2000/svg">
<path d="M38.9279 8.93096C38.9279 13.6674 35.1251 17.5074 30.4346 17.5074C30.2704 17.5074 30.1061 17.5039 29.9418 17.4933C29.8824 17.4898 29.823 17.4898 29.7601 17.4898C28.0405 17.4898 26.6459 18.898 26.6459 20.6345C26.6459 21.2733 26.8346 21.8663 27.1562 22.3604C28.0405 23.7121 28.5508 25.3321 28.5508 27.0721C28.5508 31.8086 24.748 35.6486 20.0576 35.6486C15.3671 35.6486 11.5644 31.8086 11.5644 27.0721C11.5644 25.3321 12.0781 23.7121 12.9589 22.3604C13.284 21.8663 13.4692 21.2698 13.4692 20.6345C13.4692 18.898 12.0746 17.4898 10.355 17.4898C10.2956 17.4898 10.2327 17.4898 10.1733 17.4933H10.1698C10.009 17.5039 9.84474 17.5074 9.68047 17.5074C5.00047 17.5074 1.19775 13.6674 1.19775 8.93096C1.19775 4.19449 5.00047 0.354492 9.69096 0.354492C14.3814 0.354492 18.1842 4.19449 18.1842 8.93096C18.1842 10.318 17.8591 11.6239 17.2824 12.7851C17.0692 13.2086 16.9504 13.6886 16.9504 14.1968C16.9504 15.9333 18.3449 17.3416 20.0646 17.3416C21.7842 17.3416 23.1787 15.9333 23.1787 14.1968C23.1787 13.6886 23.0599 13.2086 22.8467 12.7851C22.27 11.6274 21.9449 10.318 21.9449 8.93096C21.9414 4.19449 25.7442 0.354492 30.4346 0.354492C35.1251 0.354492 38.9279 4.19449 38.9279 8.93096Z" fill="#A1A1AA"/>
<path d="M42.6848 8.93096C42.6848 10.318 43.0099 11.6239 43.5866 12.7851C44.9147 15.4463 47.5745 17.3133 50.6852 17.4933C50.8495 17.5039 51.0137 17.5074 51.178 17.5074C55.8685 17.5074 59.6712 13.6674 59.6712 8.93096C59.6712 4.19449 55.8685 0.354492 51.178 0.354492C46.4875 0.354492 42.6848 4.19449 42.6848 8.93096Z" fill="#A1A1AA"/>
<path d="M33.7083 22.3628C32.8275 23.7145 32.3137 25.3345 32.3137 27.0745C32.3137 31.811 36.1164 35.651 40.8069 35.651C45.4974 35.651 49.3001 31.811 49.3001 27.0745C49.3001 25.3345 48.7863 23.7145 47.9056 22.3628C46.3852 20.0369 43.7743 18.498 40.8069 18.498C37.8395 18.498 35.2252 20.0333 33.7083 22.3628Z" fill="#A1A1AA"/>
<path d="M67.4104 5.28418H73.5968L78.6613 19.7512L84.1102 5.28418H87.892L93.243 19.5889L98.3145 5.28418H104.539L95.3506 30.7136H91.3452L85.9766 16.2218L80.4438 30.7136H76.4838L67.4104 5.28418Z" fill="#A1A1AA"/>
<path d="M116.622 4.63574C118.999 4.63574 121.232 5.23574 123.322 6.43574C125.413 7.63574 127.045 9.2628 128.219 11.3204C129.394 13.3781 129.977 15.5981 129.977 17.9805C129.977 20.3805 129.387 22.6252 128.205 24.711C127.024 26.7969 125.416 28.431 123.378 29.6063C121.341 30.7816 119.097 31.371 116.643 31.371C113.033 31.371 109.95 30.0722 107.395 27.4781C104.84 24.884 103.564 21.7322 103.564 18.0228C103.564 14.0487 105.008 10.7381 107.895 8.09104C110.429 5.78986 113.337 4.63574 116.622 4.63574ZM116.727 10.6428C114.763 10.6428 113.131 11.331 111.823 12.711C110.516 14.091 109.863 15.8557 109.863 18.0052C109.863 20.2181 110.509 22.011 111.799 23.3805C113.089 24.7534 114.724 25.4381 116.703 25.4381C118.681 25.4381 120.327 24.7463 121.641 23.3593C122.956 21.9722 123.613 20.1899 123.613 18.0052C123.613 15.824 122.966 14.0522 121.676 12.6863C120.387 11.324 118.737 10.6428 116.727 10.6428Z" fill="#A1A1AA"/>
<path d="M128.653 5.28418H135.091L141.452 20.2912L147.799 5.28418H154.206L143.489 30.7136H139.393L128.653 5.28418Z" fill="#A1A1AA"/>
<path d="M179.338 19.8487H159.038C159.332 21.6558 160.115 23.0958 161.387 24.1616C162.659 25.2311 164.284 25.764 166.259 25.764C168.618 25.764 170.649 24.9311 172.348 23.2616L177.671 25.7852C176.343 27.6875 174.752 29.0922 172.903 30.0028C171.051 30.9134 168.853 31.3687 166.308 31.3687C162.359 31.3687 159.14 30.1122 156.658 27.5922C154.173 25.0758 152.932 21.924 152.932 18.1369C152.932 14.2581 154.169 11.0358 156.647 8.47341C159.126 5.91106 162.229 4.62988 165.962 4.62988C169.929 4.62988 173.152 5.91106 175.637 8.47341C178.122 11.0358 179.362 14.4205 179.362 18.6275L179.338 19.8487ZM173.019 14.8228C172.603 13.404 171.778 12.2534 170.551 11.364C169.321 10.4746 167.898 10.0334 166.273 10.0334C164.512 10.0334 162.967 10.5311 161.635 11.5299C160.8 12.1546 160.027 13.2522 159.318 14.8264H173.019V14.8228Z" fill="#A1A1AA"/>
</svg>
