<svg width="97" height="39" viewBox="0 0 97 39" fill="none" xmlns="http://www.w3.org/2000/svg">
<g clip-path="url(#clip0_4_2018)">
<path d="M0.281544 33.3953C0.569839 33.1072 0.979525 32.9707 1.3892 32.9707C2.20858 32.9707 2.54239 33.3649 2.54239 34.1381V35.3208C2.54239 35.4876 2.55756 35.6544 2.58791 35.8059H2.14788C2.11753 35.6847 2.11753 35.5179 2.11753 35.3966H2.10236C1.92028 35.6847 1.61681 35.8818 1.19195 35.8818C0.630533 35.8818 0.160156 35.5937 0.160156 35.0631C0.160156 34.1533 1.2223 34.0927 1.9051 34.0927H2.08719V34.0169C2.08719 33.6075 1.82923 33.4104 1.40438 33.4104C1.11608 33.4104 0.797441 33.5166 0.585014 33.7136L0.281544 33.3953ZM1.61681 34.4718C1.02504 34.4718 0.645708 34.6385 0.645708 35.0024C0.645708 35.3511 0.903655 35.4876 1.25265 35.4876C1.78372 35.4876 2.05684 35.1085 2.07201 34.6537V34.4718H1.61681Z" fill="#A1A1AA"/>
<path d="M5.19229 35.0782C5.37437 35.3057 5.57162 35.4572 5.90544 35.4572C6.19373 35.4572 6.51238 35.3359 6.51238 35.0327C6.51238 34.7446 6.22408 34.6537 5.92061 34.5931C5.38954 34.4718 4.94951 34.3656 4.94951 33.7894C4.94951 33.2588 5.46541 32.9707 5.98131 32.9707C6.37581 32.9707 6.73996 33.1223 6.92208 33.4711L6.54273 33.7288C6.42134 33.5317 6.22408 33.3953 5.95096 33.3953C5.69301 33.3953 5.40471 33.5166 5.40471 33.7743C5.40471 34.0017 5.73853 34.1079 6.1027 34.1837C6.58825 34.2746 7.0131 34.4566 7.0131 35.0176C7.0131 35.6392 6.45168 35.8818 5.90544 35.8818C5.43506 35.8818 5.10125 35.7605 4.82812 35.3663L5.19229 35.0782Z" fill="#A1A1AA"/>
<path d="M10.1294 35.1544C10.1294 35.4122 10.1597 35.6244 10.1597 35.8063H9.71968C9.71968 35.6548 9.7045 35.5031 9.7045 35.3515H9.68932C9.56793 35.6244 9.21894 35.8822 8.76375 35.8822C8.03542 35.8822 7.7168 35.4273 7.7168 34.7602V33.0469H8.17199V34.7147C8.17199 35.1696 8.36922 35.4728 8.8093 35.4728C9.40106 35.4728 9.67413 35.0483 9.67413 34.4115V33.062H10.1294V35.1544Z" fill="#A1A1AA"/>
<path d="M11.041 31.334H11.4962V33.4414H11.5114C11.7694 33.1533 12.1032 32.9714 12.4977 32.9714C13.3625 32.9714 13.9543 33.5931 13.9543 34.427C13.9543 35.2609 13.3474 35.8825 12.5735 35.8825C12.0728 35.8825 11.6783 35.6399 11.5114 35.3215H11.4962V35.8067H11.041V31.334ZM12.4825 35.4428C13.0743 35.4428 13.4688 34.9879 13.4688 34.4118C13.4688 33.8357 13.0894 33.3808 12.4825 33.3808C11.8907 33.3808 11.4962 33.8357 11.4962 34.4118C11.4962 35.0031 11.8907 35.4428 12.4825 35.4428Z" fill="#A1A1AA"/>
<path d="M14.7821 35.0782C14.9643 35.3057 15.1615 35.4572 15.4953 35.4572C15.7836 35.4572 16.1022 35.3359 16.1022 35.0327C16.1022 34.7446 15.814 34.6537 15.5105 34.5931C14.9794 34.4718 14.5394 34.3656 14.5394 33.7894C14.5394 33.2588 15.0553 32.9707 15.5712 32.9707C15.9657 32.9707 16.3298 33.1223 16.5119 33.4711L16.1326 33.7288C16.0112 33.5317 15.814 33.3953 15.5408 33.3953C15.2829 33.3953 14.9946 33.5166 14.9946 33.7743C14.9946 34.0017 15.3284 34.1079 15.6926 34.1837C16.1781 34.2746 16.603 34.4566 16.603 35.0176C16.603 35.6392 16.0416 35.8818 15.4953 35.8818C15.0249 35.8818 14.6911 35.7605 14.418 35.3663L14.7821 35.0782Z" fill="#A1A1AA"/>
<path d="M17.5799 31.6211C17.762 31.6211 17.9137 31.7727 17.9137 31.9547C17.9137 32.1518 17.7772 32.2883 17.5799 32.2883C17.3827 32.2883 17.2461 32.1518 17.2461 31.9547C17.2461 31.7727 17.3978 31.6211 17.5799 31.6211ZM17.3523 33.0312H17.8075V35.7906H17.3523V33.0312Z" fill="#A1A1AA"/>
<path d="M21.0831 35.3059C20.901 35.6243 20.5065 35.8669 20.0058 35.8669C19.2319 35.8669 18.625 35.2452 18.625 34.4114C18.625 33.5775 19.2168 32.9558 20.0817 32.9558C20.4914 32.9558 20.8252 33.1378 21.068 33.4258H21.0831V31.3184H21.5383V35.791H21.0831V35.3059ZM20.112 33.3955C19.5203 33.3955 19.1257 33.8504 19.1257 34.4265C19.1257 35.0027 19.5051 35.4575 20.112 35.4575C20.719 35.4575 21.0983 35.0027 21.0983 34.4265C21.0831 33.8352 20.7038 33.3955 20.112 33.3955Z" fill="#A1A1AA"/>
<path d="M22.7244 31.6211C22.9065 31.6211 23.0582 31.7727 23.0582 31.9547C23.0582 32.1518 22.9217 32.2883 22.7244 32.2883C22.5271 32.2883 22.3906 32.1518 22.3906 31.9547C22.3906 31.7727 22.5423 31.6211 22.7244 31.6211ZM22.4968 33.0312H22.952V35.7906H22.4968V33.0312Z" fill="#A1A1AA"/>
<path d="M23.8909 33.3953C24.1792 33.1072 24.5889 32.9707 24.9986 32.9707C25.818 32.9707 26.1518 33.3649 26.1518 34.1381V35.3208C26.1518 35.4876 26.1669 35.6544 26.1973 35.8059H25.7572C25.7269 35.6847 25.7269 35.5179 25.7269 35.3966H25.7118C25.5296 35.6847 25.2262 35.8818 24.8013 35.8818C24.2399 35.8818 23.7695 35.5937 23.7695 35.0631C23.7695 34.1533 24.8317 34.0927 25.5145 34.0927H25.6966V34.0169C25.6966 33.6075 25.4386 33.4104 25.0138 33.4104C24.7255 33.4104 24.4068 33.5166 24.1944 33.7136L23.8909 33.3953ZM25.2262 34.4718C24.6344 34.4718 24.2551 34.6385 24.2551 35.0024C24.2551 35.3511 24.513 35.4876 24.862 35.4876C25.3931 35.4876 25.6662 35.1085 25.6814 34.6537V34.4718H25.2262Z" fill="#A1A1AA"/>
<path d="M27.0557 33.6985C27.0557 33.4407 27.0254 33.2285 27.0254 33.0466H27.4654C27.4654 33.1981 27.4806 33.3498 27.4806 33.5014H27.4958C27.6172 33.2285 27.9661 32.9707 28.4213 32.9707C28.482 32.9707 28.5427 32.9707 28.6034 33.001L28.5731 33.4711C28.4972 33.4407 28.4061 33.4407 28.3303 33.4407C27.7688 33.4407 27.5261 33.8349 27.5261 34.4718V35.8211H27.0709V33.6985H27.0557Z" fill="#A1A1AA"/>
<path d="M30.2119 36.4426C30.0298 36.9126 29.8477 37.231 29.2863 37.231C29.1498 37.231 28.998 37.2158 28.8766 37.1552L28.9374 36.7458C29.0284 36.7762 29.1346 36.7913 29.256 36.7913C29.5594 36.7913 29.6657 36.6094 29.7719 36.3365L29.9539 35.821L28.8008 33.0312H29.3318L30.1967 35.1993H30.2119L31.0313 33.0312H31.532L30.2119 36.4426Z" fill="#A1A1AA"/>
<path d="M35.1359 32.9707C35.9856 32.9707 36.6077 33.562 36.6077 34.4263C36.6077 35.2905 35.9856 35.8818 35.1359 35.8818C34.2862 35.8818 33.6641 35.2905 33.6641 34.4263C33.6641 33.562 34.2862 32.9707 35.1359 32.9707ZM35.1359 35.4421C35.7277 35.4421 36.1221 34.9872 36.1221 34.4111C36.1221 33.8349 35.7429 33.3801 35.1359 33.3801C34.529 33.3801 34.1496 33.8349 34.1496 34.4111C34.1496 35.0024 34.5441 35.4421 35.1359 35.4421Z" fill="#A1A1AA"/>
<path d="M37.6148 33.426H37.0078V33.0317H37.6148V32.4102C37.6148 31.743 37.8575 31.2578 38.601 31.2578C38.7224 31.2578 38.8741 31.2882 38.95 31.3337L38.8893 31.743C38.7831 31.7127 38.6769 31.6824 38.5707 31.6824C38.0851 31.6824 38.07 32.0311 38.07 32.5163V33.0317H38.7376V33.426H38.07V35.8064H37.6148V33.426Z" fill="#A1A1AA"/>
<path d="M44.0271 32.486C43.7844 32.1524 43.3899 31.9705 42.9802 31.9705C42.0394 31.9705 41.3869 32.7893 41.3869 33.7141C41.3869 34.6845 42.0394 35.4577 42.9802 35.4577C43.4961 35.4577 43.8906 35.2454 44.1941 34.8664L44.5734 35.1848C44.1941 35.6851 43.663 35.9125 42.9954 35.9125C41.7967 35.9125 40.8711 34.9877 40.8711 33.7141C40.8711 32.486 41.7511 31.5156 42.9954 31.5156C43.5568 31.5156 44.1182 31.7128 44.4672 32.1676L44.0271 32.486Z" fill="#A1A1AA"/>
<path d="M45.1917 33.3953C45.48 33.1072 45.8897 32.9707 46.2994 32.9707C47.1187 32.9707 47.4525 33.3649 47.4525 34.1381V35.3208C47.4525 35.4876 47.4677 35.6544 47.4981 35.8059H47.058C47.0277 35.6847 47.0277 35.5179 47.0277 35.3966H47.0125C46.8304 35.6847 46.527 35.8818 46.1021 35.8818C45.5407 35.8818 45.0703 35.5937 45.0703 35.0631C45.0703 34.1533 46.1325 34.0927 46.8152 34.0927H46.9974V34.0169C46.9974 33.6075 46.7394 33.4104 46.3146 33.4104C46.0262 33.4104 45.7076 33.5166 45.4952 33.7136L45.1917 33.3953ZM46.5422 34.4718C45.9504 34.4718 45.5711 34.6385 45.5711 35.0024C45.5711 35.3511 45.829 35.4876 46.178 35.4876C46.709 35.4876 46.9822 35.1085 46.9974 34.6537V34.4718H46.5422Z" fill="#A1A1AA"/>
<path d="M48.332 31.334H48.7872V33.4414H48.8024C49.0604 33.1533 49.3942 32.9714 49.7887 32.9714C50.6536 32.9714 51.2454 33.5931 51.2454 34.427C51.2454 35.2609 50.6384 35.8825 49.8646 35.8825C49.3638 35.8825 48.9693 35.6399 48.8024 35.3215H48.7872V35.8067H48.332V31.334ZM49.7887 35.4428C50.3805 35.4428 50.7749 34.9879 50.7749 34.4118C50.7749 33.8357 50.3957 33.3808 49.7887 33.3808C49.1969 33.3808 48.8024 33.8357 48.8024 34.4118C48.8024 35.0031 49.1818 35.4428 49.7887 35.4428Z" fill="#A1A1AA"/>
<path d="M52.082 31.334H52.5372V35.8067H52.082V31.334Z" fill="#A1A1AA"/>
<path d="M55.9824 35.3057C55.6638 35.7302 55.2693 35.8818 54.7534 35.8818C53.8885 35.8818 53.3574 35.2298 53.3574 34.4263C53.3574 33.562 53.9644 32.9707 54.7837 32.9707C55.5576 32.9707 56.1038 33.5014 56.1038 34.4263V34.5779H53.8733C53.9037 35.0631 54.2831 35.4572 54.7837 35.4572C55.1783 35.4572 55.4514 35.3208 55.6638 35.0327L55.9824 35.3057ZM55.588 34.1685C55.5728 33.6985 55.2693 33.3953 54.7534 33.3953C54.2375 33.3953 53.9037 33.7136 53.843 34.1685H55.588Z" fill="#A1A1AA"/>
<path d="M56.9551 31.623H57.4558V35.3529H59.3677V35.8077H56.9551V31.623Z" fill="#A1A1AA"/>
<path d="M59.8475 33.3953C60.1358 33.1072 60.5455 32.9707 60.9552 32.9707C61.7746 32.9707 62.1084 33.3649 62.1084 34.1381V35.3208C62.1084 35.4876 62.1235 35.6544 62.1539 35.8059H61.7139C61.6835 35.6847 61.6835 35.5179 61.6835 35.3966H61.6532C61.4711 35.6847 61.1676 35.8818 60.7428 35.8818C60.1813 35.8818 59.7109 35.5937 59.7109 35.0631C59.7109 34.1533 60.7731 34.0927 61.4559 34.0927H61.638V34.0169C61.638 33.6075 61.38 33.4104 60.9552 33.4104C60.6669 33.4104 60.3482 33.5166 60.1358 33.7136L59.8475 33.3953ZM61.1828 34.4718C60.591 34.4718 60.2117 34.6385 60.2117 35.0024C60.2117 35.3511 60.4696 35.4876 60.8186 35.4876C61.3497 35.4876 61.6228 35.1085 61.638 34.6537V34.4718H61.1828Z" fill="#A1A1AA"/>
<path d="M62.9766 31.334H63.4318V33.4414H63.4469C63.7049 33.1533 64.0387 32.9714 64.4332 32.9714C65.2981 32.9714 65.8898 33.5931 65.8898 34.427C65.8898 35.2609 65.2829 35.8825 64.5091 35.8825C64.0083 35.8825 63.6138 35.6399 63.4469 35.3215H63.4318V35.8067H62.9766V31.334ZM64.4181 35.4428C65.0098 35.4428 65.4043 34.9879 65.4043 34.4118C65.4043 33.8357 65.025 33.3808 64.4181 33.3808C63.8263 33.3808 63.4318 33.8357 63.4318 34.4118C63.4469 35.0031 63.8263 35.4428 64.4181 35.4428Z" fill="#A1A1AA"/>
<path d="M66.7275 35.0782C66.9096 35.3057 67.1068 35.4572 67.4406 35.4572C67.7289 35.4572 68.0476 35.3359 68.0476 35.0327C68.0476 34.7446 67.7593 34.6537 67.4558 34.5931C66.9248 34.4718 66.4847 34.3656 66.4847 33.7894C66.4847 33.2588 67.0006 32.9707 67.5165 32.9707C67.911 32.9707 68.2749 33.1223 68.4575 33.4711L68.0779 33.7288C67.9565 33.5317 67.7593 33.3953 67.4862 33.3953C67.2282 33.3953 66.9399 33.5166 66.9399 33.7743C66.9399 34.0017 67.2737 34.1079 67.6379 34.1837C68.1235 34.2746 68.5485 34.4566 68.5485 35.0176C68.5485 35.6392 67.9869 35.8818 67.4406 35.8818C66.9702 35.8818 66.6364 35.7605 66.3633 35.3663L66.7275 35.0782Z" fill="#A1A1AA"/>
<path d="M70.2387 31.4238C70.7694 31.4238 71.2098 31.8632 71.2098 32.3936C71.2098 32.9239 70.7694 33.3634 70.2387 33.3634C69.7073 33.3634 69.2676 32.9239 69.2676 32.3936C69.2676 31.8632 69.6923 31.4238 70.2387 31.4238ZM70.2387 33.1967C70.6784 33.1967 71.0429 32.833 71.0429 32.3936C71.0429 31.9541 70.6784 31.5905 70.2387 31.5905C69.7983 31.5905 69.4344 31.9541 69.4344 32.3936C69.4344 32.833 69.7983 33.1967 70.2387 33.1967ZM69.8591 31.8329H70.2838C70.5574 31.8329 70.6784 31.9541 70.6784 32.1663C70.6784 32.3633 70.5574 32.4542 70.4056 32.4693L70.6935 32.9391H70.4815L70.2079 32.4845H70.0561V32.9391H69.8591V31.8329ZM70.0718 32.3178H70.223C70.3447 32.3178 70.4815 32.3027 70.4815 32.1663C70.4815 32.0148 70.3447 32.0148 70.223 32.0148H70.0718V32.3178Z" fill="#A1A1AA"/>
<path d="M94.9262 23.6309C95.6695 23.6309 96.2768 24.2373 96.2768 24.9803C96.2768 25.7232 95.6695 26.3297 94.9262 26.3297C94.1828 26.3297 93.5762 25.7232 93.5762 24.9803C93.5762 24.2373 94.1828 23.6309 94.9262 23.6309ZM94.9262 26.1023C95.5485 26.1023 96.0341 25.6019 96.0341 24.9955C96.0341 24.3738 95.5334 23.8886 94.9262 23.8886C94.3045 23.8886 93.819 24.389 93.819 24.9955C93.819 25.6019 94.3045 26.1023 94.9262 26.1023ZM94.4105 24.207H95.0021C95.3666 24.207 95.5485 24.3738 95.5485 24.6771C95.5485 24.9499 95.3816 25.0712 95.1847 25.1016L95.5943 25.7535H95.2907L94.9111 25.1167H94.6991V25.7535H94.4105V24.207ZM94.6834 24.8742H94.8961C95.078 24.8742 95.2599 24.859 95.2599 24.6619C95.2599 24.4648 95.0629 24.4496 94.8961 24.4496H94.6834V24.8742Z" fill="#A1A1AA"/>
<path d="M0.779095 18.4162C1.06739 19.7352 1.31017 20.9785 2.2054 22.2976C3.55584 24.2837 5.80151 25.4361 7.9106 25.4361C10.0198 25.4361 13.1454 24.0411 13.1454 20.4478C13.1454 19.2349 12.7206 17.6732 11.0819 16.4603C10.0804 15.7477 9.44312 15.5354 6.42363 14.5347C4.4966 13.898 0.505975 12.5486 0.505975 7.74226C0.505975 3.72442 3.49515 0.585938 7.9106 0.585938C10.2322 0.585938 11.6433 1.40467 12.9634 2.1476L14.4201 1.04079L15.2394 8.33357L14.4201 8.51555C13.9648 6.77193 12.5689 1.78372 8.01681 1.78372C4.9518 1.78372 3.38893 3.87604 3.38893 6.01384C3.38893 7.1813 3.78344 8.36391 4.63316 9.25849C5.66495 10.3653 6.87883 10.7595 9.47348 11.5782C11.9619 12.3666 16.2105 13.6705 16.2105 19.0226C16.2105 23.647 12.402 26.6035 7.83476 26.6035C4.73937 26.6035 3.13099 25.4967 2.09919 24.8296L0.141812 26.1183C0.111465 22.4492 0.0659444 21.6001 -0.146484 18.5071L0.779095 18.4162Z" fill="#A1A1AA"/>
<path d="M43.6263 20.6609C41.1682 24.6181 37.7087 26.7104 33.02 26.7104C25.9644 26.7104 20.3047 21.6615 20.3047 13.7926C20.3047 5.52943 26.3589 0.419922 33.0504 0.419922C37.2231 0.419922 39.7115 2.23933 41.1682 3.33098L42.989 1.79964L43.0953 9.24403L42.3517 9.31988C41.9572 8.07659 41.6082 6.96983 40.6371 5.59008C38.786 2.81548 36.1913 1.63286 33.627 1.63286C29.2419 1.63286 24.614 5.12007 24.614 12.4129C24.614 18.6443 28.1039 24.9062 34.4767 24.9062C39.1805 24.9062 41.3806 21.7373 42.5945 20.0241L43.6263 20.6609Z" fill="#A1A1AA"/>
<path d="M45.1953 7.74168C46.303 4.75482 46.5458 4.01189 47.441 0.949219H68.1376C69.0631 4.11802 69.3059 4.83062 70.383 7.74168L69.5945 8.09039C68.2438 6.27099 65.9982 3.28413 64.9663 2.67766C64.0104 2.147 63.2518 2.147 59.5949 2.17732V19.7953C59.5949 21.0385 59.6253 22.9337 59.8074 23.5706C60.126 24.6015 60.915 24.738 63.5856 24.9654V26.1026C61.6585 26.0722 59.777 25.9965 57.85 25.9965C55.8926 25.9965 53.9353 26.0722 51.9778 26.1026V24.9654C55.5436 24.8896 55.7105 24.2225 55.8623 23.4644C56.0443 22.6457 56.0747 20.9324 56.0747 19.7953V2.19248H53.0855C51.7958 2.22281 50.9461 2.26829 49.8384 3.29929C49.3074 3.75414 49.2011 3.93608 45.9996 8.10556L45.1953 7.74168Z" fill="#A1A1AA"/>
<path d="M72.1113 0.980469H90.5925C91.7606 3.78539 92.0944 4.54348 93.3691 7.16647L92.6866 7.66682C89.8034 4.46767 89.8033 4.46767 89.166 3.89153C87.6334 2.46632 86.4653 2.17825 82.323 2.1176H78.6506V12.3366H82.1712C85.5243 12.3669 86.1316 11.806 86.9509 8.13683H87.8762C87.8003 9.80463 87.7702 11.5179 87.7702 13.2312C87.7702 14.8686 87.8003 16.5061 87.8762 18.1133H86.9509C86.1316 14.0499 85.3424 13.8376 81.3971 13.8376H78.6506V19.8872C78.6814 24.7693 78.6814 24.9057 83.567 24.9815H85.4484C88.4075 24.9512 89.0142 24.9512 93.3541 18.932L94.1433 19.3565C93.1414 22.3737 92.9294 23.1318 92.1094 26.1187H72.1113V24.9815C74.812 24.7693 74.9638 24.087 74.9939 22.4495C75.0698 20.7362 75.1006 19.0381 75.1006 15.4751V8.78875C75.1006 7.68199 75.1006 4.0583 74.812 3.37603C74.4933 2.45116 73.8108 2.34502 72.1113 2.13276V0.980469Z" fill="#A1A1AA"/>
</g>
<defs>
<clipPath id="clip0_4_2018">
<rect width="96.4274" height="37.5845" fill="white" transform="translate(0.511719 0.724609)"/>
</clipPath>
</defs>
</svg>
