<svg width="234" height="91" viewBox="0 0 234 91" fill="none" xmlns="http://www.w3.org/2000/svg">
<g clip-path="url(#clip0_1_18242)">
<path d="M31.0836 80.778C31.7832 80.0804 32.7774 79.75 33.7716 79.75C35.76 79.75 36.57 80.7045 36.57 82.5766V85.44C36.57 85.8439 36.6068 86.2477 36.6805 86.6147H35.6127C35.539 86.321 35.539 85.9173 35.539 85.6236H35.5022C35.0603 86.321 34.3239 86.7984 33.2929 86.7984C31.9305 86.7984 30.7891 86.1008 30.7891 84.8161C30.7891 82.6134 33.3666 82.4666 35.0235 82.4666H35.4654V82.2829C35.4654 81.2919 34.8394 80.8145 33.8084 80.8145C33.1088 80.8145 32.3356 81.0717 31.8201 81.5488L31.0836 80.778ZM34.3239 83.3844C32.8879 83.3844 31.9674 83.7881 31.9674 84.6691C31.9674 85.5134 32.5933 85.8439 33.4402 85.8439C34.7289 85.8439 35.3917 84.9261 35.4286 83.8248V83.3844H34.3239Z" fill="#E4E4E7"/>
<path d="M43.0165 84.8526C43.4584 85.4034 43.9371 85.7704 44.7471 85.7704C45.4467 85.7704 46.22 85.4767 46.22 84.7426C46.22 84.045 45.5204 83.8248 44.7839 83.6781C43.4952 83.3844 42.4274 83.1273 42.4274 81.7323C42.4274 80.4476 43.6793 79.75 44.9312 79.75C45.8886 79.75 46.7723 80.1171 47.2142 80.9615L46.2936 81.5856C45.9991 81.1082 45.5204 80.778 44.8576 80.778C44.2316 80.778 43.532 81.0717 43.532 81.6956C43.532 82.2464 44.3421 82.5033 45.2258 82.6868C46.4041 82.907 47.4351 83.3476 47.4351 84.7059C47.4351 86.211 46.0727 86.7984 44.7471 86.7984C43.6057 86.7984 42.7956 86.5047 42.1328 85.5502L43.0165 84.8526Z" fill="#E4E4E7"/>
<path d="M54.9796 85.0364C54.9796 85.6605 55.0532 86.1744 55.0532 86.6148H53.9854C53.9854 86.2478 53.9486 85.8807 53.9486 85.5136H53.9117C53.6171 86.1744 52.7703 86.7985 51.6656 86.7985C49.8982 86.7985 49.125 85.697 49.125 84.0819V79.9336H50.2296V83.9717C50.2296 85.0731 50.7082 85.8072 51.7762 85.8072C53.2122 85.8072 53.8749 84.7794 53.8749 83.2376V79.9703H54.9796V85.0364Z" fill="#E4E4E7"/>
<path d="M57.1875 75.7852H58.2921V80.8878H58.329C58.9549 80.1902 59.765 79.7498 60.7224 79.7498C62.8211 79.7498 64.2571 81.2549 64.2571 83.274C64.2571 85.293 62.7844 86.7981 60.9064 86.7981C59.6913 86.7981 58.7341 86.2108 58.329 85.4398H58.2921V86.6145H57.1875V75.7852ZM60.6856 85.7334C62.1216 85.7334 63.079 84.6322 63.079 83.2372C63.079 81.8423 62.1584 80.741 60.6856 80.741C59.2495 80.741 58.2921 81.8423 58.2921 83.2372C58.2921 84.6689 59.2495 85.7334 60.6856 85.7334Z" fill="#E4E4E7"/>
<path d="M66.29 84.8526C66.7319 85.4034 67.2105 85.7704 68.0206 85.7704C68.7203 85.7704 69.4935 85.4767 69.4935 84.7426C69.4935 84.045 68.7939 83.8248 68.0574 83.6781C66.7688 83.3844 65.7008 83.1273 65.7008 81.7323C65.7008 80.4476 66.9528 79.75 68.2048 79.75C69.162 79.75 70.0458 80.1171 70.4877 80.9615L69.5671 81.5856C69.2726 81.1082 68.7939 80.778 68.1311 80.778C67.5051 80.778 66.8056 81.0717 66.8056 81.6956C66.8056 82.2464 67.6156 82.5033 68.4994 82.6868C69.6777 82.907 70.7086 83.3476 70.7086 84.7059C70.7086 86.211 69.3462 86.7984 68.0206 86.7984C66.8791 86.7984 66.0691 86.5047 65.4062 85.5502L66.29 84.8526Z" fill="#E4E4E7"/>
<path d="M73.06 76.4824C73.502 76.4824 73.8701 76.8496 73.8701 77.2902C73.8701 77.7673 73.5388 78.0978 73.06 78.0978C72.5814 78.0978 72.25 77.7673 72.25 77.2902C72.25 76.8496 72.6183 76.4824 73.06 76.4824ZM72.5077 79.8966H73.6123V86.5776H72.5077V79.8966Z" fill="#E4E4E7"/>
<path d="M81.5667 85.4027C81.1248 86.1737 80.1674 86.761 78.9524 86.761C77.0744 86.761 75.6016 85.2559 75.6016 83.2368C75.6016 81.2178 77.0376 79.7127 79.1365 79.7127C80.1307 79.7127 80.9407 80.1533 81.5299 80.8507H81.5667V75.748H82.6714V86.5774H81.5667V85.4027ZM79.2101 80.7772C77.7741 80.7772 76.8167 81.8786 76.8167 83.2736C76.8167 84.6685 77.7373 85.7698 79.2101 85.7698C80.683 85.7698 81.6034 84.6685 81.6034 83.2736C81.5667 81.8419 80.6462 80.7772 79.2101 80.7772Z" fill="#E4E4E7"/>
<path d="M85.5444 76.4824C85.9862 76.4824 86.3545 76.8496 86.3545 77.2902C86.3545 77.7673 86.023 78.0978 85.5444 78.0978C85.0656 78.0978 84.7344 77.7673 84.7344 77.2902C84.7344 76.8496 85.1025 76.4824 85.5444 76.4824ZM84.9921 79.8966H86.0967V86.5776H84.9921V79.8966Z" fill="#E4E4E7"/>
<path d="M88.3805 80.778C89.0802 80.0804 90.0743 79.75 91.0685 79.75C93.0569 79.75 93.8669 80.7045 93.8669 82.5766V85.44C93.8669 85.8439 93.9037 86.2477 93.9774 86.6147H92.9095C92.836 86.321 92.836 85.9173 92.836 85.6236H92.7991C92.3572 86.321 91.6208 86.7984 90.5897 86.7984C89.2274 86.7984 88.0859 86.1008 88.0859 84.8161C88.0859 82.6134 90.6634 82.4666 92.3203 82.4666H92.7623V82.2829C92.7623 81.2919 92.1363 80.8145 91.1054 80.8145C90.4057 80.8145 89.6325 81.0717 89.1169 81.5488L88.3805 80.778ZM91.6208 83.3844C90.1848 83.3844 89.2642 83.7881 89.2642 84.6691C89.2642 85.5134 89.8902 85.8439 90.7371 85.8439C92.0258 85.8439 92.6886 84.9261 92.7254 83.8248V83.3844H91.6208Z" fill="#E4E4E7"/>
<path d="M96.0735 81.5121C96.0735 80.888 96 80.3741 96 79.9337H97.0678C97.0678 80.3006 97.1046 80.6678 97.1046 81.0349H97.1415C97.436 80.3741 98.2829 79.75 99.3875 79.75C99.5347 79.75 99.6821 79.75 99.8293 79.8235L99.7558 80.9615C99.5716 80.888 99.3507 80.888 99.1666 80.888C97.8041 80.888 97.215 81.8425 97.215 83.3844V86.6514H96.1104V81.5121H96.0735Z" fill="#E4E4E7"/>
<path d="M103.737 88.1561C103.295 89.2941 102.853 90.065 101.491 90.065C101.159 90.065 100.791 90.0283 100.497 89.8815L100.644 88.8903C100.865 88.9637 101.123 89.0005 101.417 89.0005C102.153 89.0005 102.411 88.56 102.669 87.8992L103.111 86.651L100.312 79.8965H101.601L103.7 85.1459H103.737L105.725 79.8965H106.94L103.737 88.1561Z" fill="#E4E4E7"/>
<path d="M115.665 79.75C117.727 79.75 119.237 81.1817 119.237 83.2742C119.237 85.3667 117.727 86.7984 115.665 86.7984C113.603 86.7984 112.094 85.3667 112.094 83.2742C112.094 81.1817 113.603 79.75 115.665 79.75ZM115.665 85.7337C117.102 85.7337 118.059 84.6324 118.059 83.2375C118.059 81.8425 117.138 80.7412 115.665 80.7412C114.193 80.7412 113.272 81.8425 113.272 83.2375C113.272 84.6691 114.229 85.7337 115.665 85.7337Z" fill="#E4E4E7"/>
<path d="M121.699 80.8511H120.227V79.8966H121.699V78.3916C121.699 76.7763 122.289 75.6016 124.093 75.6016C124.387 75.6016 124.756 75.675 124.94 75.7852L124.792 76.7763C124.535 76.703 124.277 76.6295 124.019 76.6295C122.841 76.6295 122.804 77.4738 122.804 78.6486V79.8966H124.424V80.8511H122.804V86.6145H121.699V80.8511Z" fill="#E4E4E7"/>
<path d="M137.237 78.576C136.648 77.7684 135.691 77.328 134.696 77.328C132.413 77.328 130.83 79.3103 130.83 81.5496C130.83 83.899 132.413 85.7711 134.696 85.7711C135.948 85.7711 136.905 85.2572 137.642 84.3395L138.563 85.1105C137.642 86.3218 136.353 86.8724 134.733 86.8724C131.824 86.8724 129.578 84.6331 129.578 81.5496C129.578 78.576 131.714 76.2266 134.733 76.2266C136.095 76.2266 137.458 76.7039 138.305 77.8052L137.237 78.576Z" fill="#E4E4E7"/>
<path d="M140.076 80.778C140.776 80.0804 141.77 79.75 142.764 79.75C144.752 79.75 145.562 80.7045 145.562 82.5766V85.44C145.562 85.8439 145.599 86.2477 145.673 86.6147H144.605C144.531 86.321 144.531 85.9173 144.531 85.6236H144.494C144.053 86.321 143.316 86.7984 142.285 86.7984C140.923 86.7984 139.781 86.1008 139.781 84.8161C139.781 82.6134 142.359 82.4666 144.016 82.4666H144.458V82.2829C144.458 81.2919 143.832 80.8145 142.801 80.8145C142.101 80.8145 141.328 81.0717 140.812 81.5488L140.076 80.778ZM143.353 83.3844C141.917 83.3844 140.996 83.7881 140.996 84.6691C140.996 85.5134 141.622 85.8439 142.469 85.8439C143.758 85.8439 144.421 84.9261 144.458 83.8248V83.3844H143.353Z" fill="#E4E4E7"/>
<path d="M147.695 75.7852H148.8V80.8878H148.837C149.463 80.1902 150.273 79.7498 151.23 79.7498C153.329 79.7498 154.765 81.2549 154.765 83.274C154.765 85.293 153.292 86.7981 151.414 86.7981C150.199 86.7981 149.242 86.2108 148.837 85.4398H148.8V86.6145H147.695V75.7852ZM151.23 85.7334C152.666 85.7334 153.623 84.6322 153.623 83.2372C153.623 81.8423 152.703 80.741 151.23 80.741C149.794 80.741 148.837 81.8423 148.837 83.2372C148.837 84.6689 149.757 85.7334 151.23 85.7334Z" fill="#E4E4E7"/>
<path d="M156.797 75.7852H157.901V86.6145H156.797V75.7852Z" fill="#E4E4E7"/>
<path d="M166.253 85.4034C165.48 86.4312 164.522 86.7984 163.27 86.7984C161.172 86.7984 159.883 85.2198 159.883 83.2742C159.883 81.1817 161.356 79.75 163.344 79.75C165.222 79.75 166.547 81.0349 166.547 83.2742V83.6413H161.135C161.208 84.8161 162.129 85.7704 163.344 85.7704C164.301 85.7704 164.964 85.44 165.48 84.7426L166.253 85.4034ZM165.296 82.6501C165.259 81.5121 164.522 80.778 163.27 80.778C162.019 80.778 161.208 81.5488 161.061 82.6501H165.296Z" fill="#E4E4E7"/>
<path d="M168.609 76.4824H169.825V85.5131H174.464V86.6144H168.609V76.4824Z" fill="#E4E4E7"/>
<path d="M175.644 80.778C176.344 80.0804 177.338 79.75 178.332 79.75C180.32 79.75 181.13 80.7045 181.13 82.5766V85.44C181.13 85.8439 181.167 86.2477 181.241 86.6147H180.173C180.099 86.321 180.099 85.9173 180.099 85.6236H180.026C179.584 86.321 178.847 86.7984 177.816 86.7984C176.454 86.7984 175.312 86.1008 175.312 84.8161C175.312 82.6134 177.89 82.4666 179.547 82.4666H179.989V82.2829C179.989 81.2919 179.363 80.8145 178.332 80.8145C177.632 80.8145 176.859 81.0717 176.344 81.5488L175.644 80.778ZM178.884 83.3844C177.448 83.3844 176.528 83.7881 176.528 84.6691C176.528 85.5134 177.154 85.8439 178.001 85.8439C179.289 85.8439 179.952 84.9261 179.989 83.8248V83.3844H178.884Z" fill="#E4E4E7"/>
<path d="M183.227 75.7852H184.331V80.8878H184.368C184.994 80.1902 185.804 79.7498 186.761 79.7498C188.86 79.7498 190.296 81.2549 190.296 83.274C190.296 85.293 188.823 86.7981 186.945 86.7981C185.73 86.7981 184.773 86.2108 184.368 85.4398H184.331V86.6145H183.227V75.7852ZM186.725 85.7334C188.161 85.7334 189.118 84.6322 189.118 83.2372C189.118 81.8423 188.197 80.741 186.725 80.741C185.289 80.741 184.331 81.8423 184.331 83.2372C184.368 84.6689 185.289 85.7334 186.725 85.7334Z" fill="#E4E4E7"/>
<path d="M192.321 84.8526C192.763 85.4034 193.242 85.7704 194.052 85.7704C194.752 85.7704 195.525 85.4767 195.525 84.7426C195.525 84.045 194.825 83.8248 194.089 83.6781C192.8 83.3844 191.732 83.1273 191.732 81.7323C191.732 80.4476 192.984 79.75 194.236 79.75C195.193 79.75 196.077 80.1171 196.52 80.9615L195.598 81.5856C195.304 81.1082 194.825 80.778 194.162 80.778C193.536 80.778 192.837 81.0717 192.837 81.6956C192.837 82.2464 193.647 82.5033 194.531 82.6868C195.709 82.907 196.74 83.3476 196.74 84.7059C196.74 86.211 195.377 86.7984 194.052 86.7984C192.91 86.7984 192.1 86.5047 191.438 85.5502L192.321 84.8526Z" fill="#E4E4E7"/>
<path d="M200.864 76.0059C202.152 76.0059 203.221 77.0704 203.221 78.3553C203.221 79.6401 202.152 80.7048 200.864 80.7048C199.575 80.7048 198.508 79.6401 198.508 78.3553C198.508 77.0704 199.538 76.0059 200.864 76.0059ZM200.864 80.3009C201.932 80.3009 202.816 79.4199 202.816 78.3553C202.816 77.2906 201.932 76.4096 200.864 76.4096C199.796 76.4096 198.913 77.2906 198.913 78.3553C198.913 79.4199 199.796 80.3009 200.864 80.3009ZM199.943 76.9969H200.974C201.638 76.9969 201.932 77.2906 201.932 77.8047C201.932 78.2819 201.638 78.5021 201.269 78.5388L201.968 79.6768H201.454L200.79 78.5755H200.421V79.6768H199.943V76.9969ZM200.459 78.1717H200.826C201.122 78.1717 201.454 78.1351 201.454 77.8047C201.454 77.4375 201.122 77.4375 200.826 77.4375H200.459V78.1717Z" fill="#E4E4E7"/>
<path d="M230.721 57.1367C232.525 57.1367 233.999 58.6051 233.999 60.404C233.999 62.2028 232.525 63.6712 230.721 63.6712C228.917 63.6712 227.445 62.2028 227.445 60.404C227.445 58.6051 228.917 57.1367 230.721 57.1367ZM230.721 63.1205C232.232 63.1205 233.41 61.9091 233.41 60.4407C233.41 58.9355 232.195 57.7608 230.721 57.7608C229.213 57.7608 228.034 58.9723 228.034 60.4407C228.034 61.9091 229.213 63.1205 230.721 63.1205ZM229.47 58.5317H230.906C231.79 58.5317 232.232 58.9355 232.232 59.6698C232.232 60.3305 231.827 60.6242 231.349 60.6976L232.343 62.2761H231.606L230.685 60.7344H230.17V62.2761H229.47V58.5317ZM230.132 60.147H230.648C231.09 60.147 231.531 60.1103 231.531 59.6331C231.531 59.1558 231.053 59.119 230.648 59.119H230.132V60.147Z" fill="#E4E4E7"/>
<path d="M2.2461 44.5087C2.94571 47.7023 3.53486 50.7126 5.70731 53.9064C8.98442 58.7153 14.434 61.5054 19.5521 61.5054C24.6704 61.5054 32.2555 58.1279 32.2555 49.4277C32.2555 46.491 31.2246 42.7099 27.2479 39.7731C24.8176 38.0477 23.271 37.5338 15.9437 35.1109C11.2673 33.5692 1.58332 30.302 1.58332 18.6649C1.58332 8.93683 8.83713 1.33789 19.5521 1.33789C25.1859 1.33789 28.6102 3.32022 31.8137 5.119L35.3486 2.43918L37.3369 20.0966L35.3486 20.5372C34.2438 16.3155 30.8563 4.23797 19.8098 4.23797C12.372 4.23797 8.57939 9.30392 8.57939 14.48C8.57939 17.3067 9.53674 20.17 11.5987 22.336C14.1026 25.0157 17.0483 25.9702 23.3447 27.9525C29.3834 29.8614 39.6935 33.0184 39.6935 45.977C39.6935 57.1736 30.4514 64.332 19.3681 64.332C11.8565 64.332 7.95343 61.6521 5.44956 60.037L0.699607 63.1573C0.625965 54.2735 0.5155 52.2177 0 44.7289L2.2461 44.5087Z" fill="#E4E4E7"/>
<path d="M106.227 49.9413C100.262 59.5224 91.867 64.5885 80.4891 64.5885C63.3673 64.5885 49.6328 52.364 49.6328 33.3116C49.6328 13.3048 64.3245 0.933594 80.5628 0.933594C90.6887 0.933594 96.7274 5.33878 100.262 7.98188L104.681 4.27419L104.939 22.2986L103.134 22.4823C102.177 19.472 101.33 16.7923 98.9735 13.4516C94.4813 6.73374 88.1849 3.87038 81.962 3.87038C71.3206 3.87038 60.0901 12.3136 60.0901 29.9711C60.0901 45.0587 68.5591 60.22 84.024 60.22C95.4387 60.22 100.778 52.5475 103.723 48.3994L106.227 49.9413Z" fill="#E4E4E7"/>
<path d="M110.023 18.6647C112.711 11.4329 113.301 9.63413 115.473 2.21875H165.698C167.943 9.89109 168.533 11.6165 171.146 18.6647L169.233 19.509C165.955 15.1039 160.506 7.87207 158.002 6.40367C155.682 5.11882 153.841 5.11882 144.967 5.19225V47.8491C144.967 50.8592 145.041 55.4479 145.483 56.9898C146.256 59.486 148.17 59.8164 154.651 60.3671V63.1204C149.975 63.0469 145.409 62.8634 140.733 62.8634C135.982 62.8634 131.233 63.0469 126.483 63.1204V60.3671C135.136 60.1836 135.541 58.5684 135.909 56.7328C136.351 54.7505 136.424 50.6023 136.424 47.8491V5.22895H129.171C126.041 5.30238 123.979 5.4125 121.291 7.90877C120.002 9.01006 119.744 9.45059 111.975 19.5458L110.023 18.6647Z" fill="#E4E4E7"/>
<path d="M175.344 2.29297H220.192C223.027 9.08428 223.837 10.9198 226.93 17.2706L225.274 18.4821C218.277 10.7362 218.277 10.7362 216.73 9.34127C213.011 5.89053 210.177 5.19304 200.125 5.0462H191.213V29.7886H199.756C207.893 29.862 209.367 28.5038 211.355 19.62H213.6C213.416 23.6581 213.343 27.8062 213.343 31.9545C213.343 35.9191 213.416 39.8838 213.6 43.7751H211.355C209.367 33.9368 207.452 33.4229 197.877 33.4229H191.213V48.0701C191.287 59.8907 191.287 60.2211 203.143 60.4046H207.709C214.89 60.3311 216.362 60.3311 226.893 45.7574L228.809 46.7852C226.377 54.0905 225.863 55.9261 223.873 63.1579H175.344V60.4046C181.897 59.8907 182.266 58.2388 182.339 54.274C182.523 50.1259 182.598 46.0144 182.598 37.3876V21.1985C182.598 18.5188 182.598 9.74506 181.897 8.09313C181.124 5.85382 179.468 5.59685 175.344 5.08291V2.29297Z" fill="#E4E4E7"/>
</g>
<defs>
<clipPath id="clip0_1_18242">
<rect width="234" height="91" fill="white"/>
</clipPath>
</defs>
</svg>
